# Blender 5.1.1
# www.blender.org
o Cloth
v 1.395726 0.012997 2.005281
v 1.370595 0.012999 1.940127
v 1.354381 0.021992 1.873964
v 1.323508 0.023014 1.810937
v 1.295100 0.025130 1.749211
v 1.257000 0.024890 1.690196
v 1.222713 0.025106 1.633620
v 1.179471 0.023892 1.580296
v 1.127988 0.024510 1.529647
v 1.085844 0.029077 1.481105
v 1.039023 0.038893 1.434337
v 0.982169 0.053150 1.393183
v 0.931115 0.076433 1.357963
v 0.887013 0.106100 1.327855
v 0.831782 0.135186 1.300665
v 0.803409 0.180612 1.282847
v 0.765006 0.204395 1.259531
v 0.725651 0.159024 1.258651
v 0.689812 0.137880 1.240660
v 0.653954 0.123875 1.221280
v 0.616510 0.112172 1.202925
v 0.582487 0.105598 1.183252
v 0.549344 0.099800 1.164228
v 0.518290 0.096609 1.143465
v 0.486061 0.090787 1.125222
v 0.453952 0.086188 1.106848
v 0.421909 0.086028 1.087667
v 0.390268 0.090652 1.067701
v 0.359730 0.104011 1.047799
v 0.326800 0.107407 1.027076
v 0.292585 0.109569 1.005307
v 0.256752 0.114899 0.983416
v 0.219132 0.121458 0.961363
v 0.178958 0.129197 0.937934
v 0.136399 0.112753 0.916467
v 0.089540 0.094888 0.891914
v 0.042433 0.075000 0.873385
v -0.009780 0.064765 0.848776
v -0.067646 0.061673 0.822181
v -0.138865 0.072211 0.784129
v -0.205535 0.069363 0.758993
v -0.275961 0.067994 0.735102
v -0.343457 0.055130 0.719577
v -0.411795 0.060846 0.710514
v -0.469545 0.023358 0.728228
v -0.544165 0.045141 0.716702
v -0.617122 0.041382 0.713994
v -0.691033 0.069191 0.704994
v -0.761858 0.072429 0.712564
v -0.832686 0.079159 0.722048
v -0.855999 0.012933 0.728311
v -0.784283 0.012902 0.719402
v -0.710617 0.012999 0.708781
v -0.636557 0.013144 0.701217
v -0.559969 0.013010 0.693780
v -0.484878 0.015603 0.692208
v -0.408710 0.027571 0.690537
v -0.333397 0.040213 0.692525
v -0.257765 0.039964 0.702826
v -0.182390 0.038578 0.714395
v -0.106024 0.031602 0.724413
v -0.028653 0.033603 0.748799
v 0.043908 0.037881 0.781873
v 0.112957 0.043941 0.813419
v 0.179599 0.051335 0.843898
v 0.247478 0.063537 0.882572
v 0.308838 0.073941 0.922080
v 0.370275 0.066427 0.955366
v 0.424114 0.059633 0.995005
v 0.475610 0.055752 1.033898
v 0.521204 0.100720 1.101712
v 0.598186 0.013416 1.094325
v 0.631412 0.023353 1.162036
v 0.607416 0.035498 1.094514
v 0.649880 0.027140 1.141388
v 0.696527 0.056858 1.170814
v 0.712976 0.094780 1.218524
v 0.725491 0.144136 1.255224
v 0.728688 0.189448 1.298175
v 0.690979 0.208439 1.368987
v 0.663810 0.257784 1.401047
v 0.625302 0.210032 1.408547
v 0.571219 0.167016 1.383532
v 0.634294 0.156989 1.382317
v 0.700643 0.176318 1.371535
v 0.682881 0.121638 1.336058
v 0.704764 0.056707 1.314461
v 0.762672 0.013005 1.318916
v 0.839079 0.012999 1.322667
v 0.884987 0.069752 1.332244
v 0.942761 0.040384 1.374246
v 0.995889 0.041025 1.428175
v 1.047848 0.032295 1.479838
v 1.099165 0.023863 1.532421
v 1.148386 0.013582 1.588169
v 1.194907 0.030005 1.641968
v 1.238115 0.027226 1.698782
v 1.280471 0.013023 1.753568
v 1.322022 0.018991 1.811303
v 1.361533 0.013247 1.868833
v 1.287564 0.052152 2.038188
v 1.269381 0.059838 1.974922
v 1.242970 0.059268 1.913620
v 1.212982 0.055299 1.854455
v 1.179226 0.042866 1.798980
v 1.154267 0.062008 1.744011
v 1.116542 0.064914 1.690918
v 1.071648 0.067430 1.640454
v 1.033089 0.072114 1.592545
v 0.983079 0.074408 1.547367
v 0.913888 0.076191 1.504032
v 0.876473 0.058845 1.470717
v 0.832251 0.088675 1.441090
v 0.785572 0.124024 1.415543
v 0.751097 0.159194 1.394385
v 0.726796 0.200828 1.373104
v 0.673978 0.223051 1.348271
v 0.643312 0.187236 1.343479
v 0.609937 0.166089 1.328339
v 0.576064 0.149246 1.312559
v 0.543825 0.140335 1.294258
v 0.508346 0.130116 1.278495
v 0.478745 0.128959 1.259687
v 0.450795 0.134070 1.240573
v 0.421291 0.128930 1.222749
v 0.392303 0.117990 1.208035
v 0.362175 0.108448 1.194850
v 0.332782 0.105722 1.177409
v 0.303215 0.108941 1.159187
v 0.271750 0.090019 1.152124
v 0.242086 0.092599 1.133896
v 0.211312 0.098100 1.115417
v 0.179176 0.103794 1.095565
v 0.143994 0.104439 1.075483
v 0.099367 0.144010 1.030408
v 0.055280 0.139903 1.002786
v 0.013001 0.116434 0.988152
v -0.041010 0.094331 0.960670
v -0.088473 0.070947 0.943670
v -0.143994 0.074850 0.920456
v -0.205467 0.064087 0.896052
v -0.266769 0.061902 0.878627
v -0.337177 0.054464 0.853727
v -0.403342 0.047921 0.840704
v -0.466613 0.049614 0.838436
v -0.525787 0.036198 0.844848
v -0.609196 0.077080 0.822821
v -0.665394 0.034279 0.849633
v -0.740437 0.084032 0.832129
v -0.809170 0.084624 0.840722
v -0.842961 0.023186 0.846132
v -0.774401 0.013201 0.837336
v -0.702150 0.013005 0.825211
v -0.631998 0.026233 0.817421
v -0.558757 0.030360 0.809871
v -0.486104 0.027890 0.808509
v -0.408353 0.013089 0.802724
v -0.330511 0.013431 0.799989
v -0.273123 0.058016 0.813843
v -0.198962 0.062277 0.824786
v -0.125657 0.065263 0.838058
v -0.063208 0.030646 0.860204
v 0.003548 0.013767 0.884726
v 0.074602 0.015785 0.917557
v 0.140944 0.012920 0.943574
v 0.206092 0.014610 0.975299
v 0.267528 0.013337 1.004183
v 0.334637 0.096436 1.092689
v 0.362383 0.040282 1.098544
v 0.411251 0.039307 1.134201
v 0.460358 0.049496 1.181726
v 0.501047 0.061574 1.227343
v 0.532451 0.089901 1.267049
v 0.509529 0.059107 1.225216
v 0.528453 0.118932 1.250407
v 0.552217 0.089461 1.287809
v 0.565621 0.041549 1.305267
v 0.557041 0.092832 1.299078
v 0.582916 0.106700 1.345278
v 0.618761 0.125077 1.386413
v 0.624424 0.156086 1.441422
v 0.622974 0.191659 1.501482
v 0.558088 0.167552 1.537034
v 0.642169 0.084592 1.460744
v 0.706703 0.119924 1.466094
v 0.657978 0.080329 1.438050
v 0.681575 0.022652 1.418756
v 0.751465 0.019002 1.431871
v 0.751186 0.064067 1.376147
v 0.809676 0.065432 1.419350
v 0.865813 0.056286 1.463675
v 0.916770 0.025655 1.506792
v 0.967845 0.013014 1.555654
v 1.016787 0.020765 1.609528
v 1.063451 0.045017 1.659081
v 1.107756 0.023274 1.714228
v 1.149427 0.032331 1.770189
v 1.190687 0.038096 1.825135
v 1.229192 0.033845 1.883263
v 1.263602 0.012987 1.937606
v 1.181403 0.100917 2.072074
v 1.154691 0.095592 2.010361
v 1.126009 0.079339 1.955746
v 1.094631 0.060837 1.903071
v 1.067108 0.069379 1.848518
v 1.033193 0.050267 1.798057
v 0.997767 0.050317 1.748608
v 0.949698 0.045729 1.700212
v 0.913688 0.054607 1.657452
v 0.866826 0.061601 1.616648
v 0.824758 0.084168 1.583911
v 0.770372 0.073378 1.550749
v 0.731404 0.109567 1.527734
v 0.699405 0.146825 1.507866
v 0.671274 0.182702 1.491578
v 0.631061 0.204453 1.473523
v 0.589644 0.216484 1.436117
v 0.552508 0.211772 1.426828
v 0.527371 0.184290 1.418961
v 0.497402 0.167767 1.406088
v 0.468026 0.160779 1.389115
v 0.439575 0.155219 1.372168
v 0.411891 0.150872 1.355274
v 0.384783 0.147203 1.338475
v 0.361669 0.159319 1.319029
v 0.333408 0.150880 1.304447
v 0.305979 0.150954 1.288302
v 0.278217 0.136930 1.276297
v 0.250122 0.128261 1.262411
v 0.221184 0.124113 1.246965
v 0.191316 0.119315 1.231450
v 0.161029 0.122974 1.213798
v 0.129555 0.127450 1.195119
v 0.097273 0.134174 1.174638
v 0.062198 0.140039 1.153415
v 0.024508 0.146952 1.131282
v 0.063817 0.099738 1.189715
v -0.062319 0.117615 1.083516
v -0.105857 0.093548 1.068148
v -0.154564 0.072824 1.049317
v -0.213428 0.054705 1.022280
v -0.266710 0.040713 1.006636
v -0.326820 0.043770 0.991850
v -0.391884 0.041739 0.975514
v -0.455965 0.058053 0.962988
v -0.521572 0.066446 0.955095
v -0.587606 0.064541 0.953032
v -0.653204 0.082428 0.950684
v -0.719200 0.094125 0.952755
v -0.784534 0.090923 0.961219
v -0.828636 0.035510 0.963723
v -0.762459 0.016547 0.952633
v -0.692899 0.012981 0.941429
v -0.627820 0.034626 0.935758
v -0.556806 0.012894 0.922293
v -0.484731 0.014042 0.921121
v -0.416686 0.037942 0.926147
v -0.345462 0.013800 0.923803
v -0.284164 0.048528 0.933247
v -0.212080 0.049983 0.940005
v -0.140945 0.042750 0.950230
v -0.074694 0.066242 0.968798
v -0.037981 0.012927 0.989751
v 0.055407 0.087789 1.042110
v 0.121782 0.107981 1.071138
v 0.175666 0.102120 1.110948
v 0.220573 0.077574 1.140558
v 0.256250 0.018321 1.143412
v 0.296473 0.046653 1.189250
v 0.345114 0.023283 1.227496
v 0.377801 0.079614 1.260373
v 0.408861 0.140903 1.269755
v 0.420504 0.037665 1.264485
v 0.448788 0.023122 1.311266
v 0.499898 0.132442 1.382551
v 0.456115 0.026662 1.315039
v 0.497303 0.122872 1.380769
v 0.520992 0.102548 1.418243
v 0.547691 0.012929 1.396847
v 0.564558 0.030974 1.444438
v 0.581667 0.052632 1.491109
v 0.635164 0.089151 1.464471
v 0.617310 0.066016 1.528848
v 0.626333 0.082735 1.586086
v 0.645216 0.125641 1.653403
v 0.658070 0.073362 1.630903
v 0.615263 0.072374 1.580752
v 0.639947 0.010771 1.424744
v 0.680641 0.046476 1.463915
v 0.735421 0.039385 1.504034
v 0.788504 0.038850 1.549255
v 0.838767 0.045559 1.596985
v 0.884490 0.017381 1.641838
v 0.931348 0.042144 1.687036
v 0.978883 0.039687 1.738051
v 1.020801 0.012796 1.784876
v 1.057371 0.051083 1.844722
v 1.100823 0.013337 1.885841
v 1.138317 0.013063 1.947132
v 1.176187 0.095842 2.066771
v 1.067412 0.069605 2.106674
v 1.047332 0.095992 2.055893
v 1.018966 0.095254 2.000376
v 0.988724 0.086514 1.946514
v 0.959550 0.045727 1.904118
v 0.920453 0.040520 1.854124
v 0.880074 0.033769 1.807094
v 0.840126 0.036994 1.763860
v 0.803156 0.054275 1.726332
v 0.741635 0.045554 1.684933
v 0.684223 0.059298 1.652020
v 0.698290 0.105361 1.645946
v 0.668840 0.137469 1.625202
v 0.630082 0.159492 1.601642
v 0.600897 0.186492 1.582574
v 0.570792 0.210858 1.565098
v 0.537527 0.223416 1.545285
v 0.504318 0.231534 1.527078
v 0.472673 0.228291 1.506806
v 0.442627 0.223996 1.487324
v 0.413501 0.220240 1.468589
v 0.383648 0.211749 1.452271
v 0.355491 0.206771 1.435459
v 0.327771 0.201896 1.419025
v 0.303053 0.169976 1.416887
v 0.277013 0.173313 1.401119
v 0.250912 0.175340 1.384936
v 0.224353 0.175406 1.368640
v 0.197081 0.171893 1.352530
v 0.168867 0.169511 1.336167
v 0.141228 0.156049 1.327407
v 0.118747 0.189044 1.294837
v 0.085952 0.192433 1.276359
v 0.051563 0.193855 1.258688
v 0.015234 0.194916 1.239908
v -0.022064 0.190139 1.223945
v -0.045367 0.159538 1.226892
v -0.098703 0.152954 1.189748
v -0.141078 0.133812 1.174261
v -0.190977 0.117058 1.151489
v -0.234566 0.092682 1.139828
v -0.282270 0.068660 1.126988
v -0.310011 0.029964 1.137770
v -0.383781 0.054048 1.105191
v -0.447050 0.045580 1.089957
v -0.511072 0.047851 1.079744
v -0.570688 0.083369 1.070906
v -0.635178 0.096393 1.068653
v -0.703285 0.111738 1.066518
v -0.762434 0.093289 1.077956
v -0.814359 0.054443 1.084780
v -0.750309 0.042804 1.071596
v -0.683904 0.038398 1.060165
v -0.623505 0.012862 1.053180
v -0.555293 0.018645 1.047909
v -0.492419 0.044979 1.042501
v -0.428008 0.019406 1.041785
v -0.360697 0.034286 1.046613
v -0.292995 0.013479 1.044292
v -0.221610 0.013197 1.046633
v -0.169617 0.064098 1.071385
v -0.107111 0.096479 1.096938
v -0.039739 0.093197 1.123402
v 0.025448 0.091951 1.153887
v 0.085033 0.101709 1.176267
v 0.092125 0.041561 1.168646
v 0.137769 0.013522 1.193347
v 0.189456 0.026861 1.236624
v 0.233625 0.013136 1.275074
v 0.256266 0.079741 1.275862
v 0.289834 0.150141 1.302603
v 0.325061 0.152402 1.344772
v 0.362853 0.140630 1.375920
v 0.351648 0.020907 1.366220
v 0.389519 0.136577 1.402055
v 0.418738 0.115135 1.433545
v 0.430341 0.077290 1.459324
v 0.421107 0.013876 1.397152
v 0.445674 0.053428 1.414695
v 0.474092 0.096045 1.430236
v 0.511559 0.132139 1.457001
v 0.548961 0.159770 1.487508
v 0.559291 0.155096 1.539806
v 0.518189 0.108716 1.574360
v 0.521366 0.085090 1.629362
v 0.555660 0.067643 1.682475
v 0.545723 0.026434 1.645463
v 0.533944 0.031111 1.532393
v 0.592616 0.039122 1.568357
v 0.646133 0.037659 1.604937
v 0.706467 0.017248 1.638430
v 0.763930 0.012944 1.678774
v 0.800289 0.040072 1.731511
v 0.845756 0.013367 1.771629
v 0.888682 0.013213 1.823067
v 0.928941 0.036784 1.869149
v 0.972317 0.021421 1.915146
v 1.005870 0.040796 1.969761
v 1.041866 0.037266 2.024101
v 1.074579 0.012983 2.072259
v 0.944317 0.051108 2.144889
v 0.918734 0.064404 2.094811
v 0.886750 0.047431 2.044022
v 0.851657 0.034961 1.995348
v 0.821619 0.024015 1.950335
v 0.788502 0.030744 1.906565
v 0.743250 0.018943 1.863295
v 0.708443 0.025498 1.824942
v 0.666143 0.031287 1.788811
v 0.624263 0.043659 1.757105
v 0.589769 0.075887 1.736708
v 0.562277 0.108505 1.720405
v 0.538665 0.142022 1.708995
v 0.496602 0.167875 1.693044
v 0.475520 0.197546 1.684552
v 0.448168 0.210889 1.666470
v 0.420384 0.206944 1.646254
v 0.396280 0.196517 1.629160
v 0.373066 0.189438 1.611210
v 0.349952 0.185203 1.593826
v 0.326636 0.169646 1.580109
v 0.305675 0.162815 1.563634
v 0.282493 0.168199 1.550370
v 0.246714 0.167289 1.547703
v 0.229749 0.182656 1.535848
v 0.208928 0.187418 1.522231
v 0.186938 0.174901 1.510038
v 0.165667 0.168126 1.497149
v 0.144342 0.160439 1.484038
v 0.121173 0.157596 1.470794
v 0.103743 0.183557 1.444632
v 0.077208 0.186641 1.433929
v 0.050151 0.185218 1.422073
v 0.022203 0.182619 1.409788
v -0.006884 0.181009 1.396682
v -0.036770 0.187803 1.383086
v -0.066579 0.173860 1.369445
v -0.089355 0.145535 1.357498
v -0.132937 0.128645 1.329427
v -0.170813 0.109512 1.313804
v -0.212114 0.088198 1.296742
v -0.261497 0.070166 1.277012
v -0.307079 0.049361 1.266698
v -0.359723 0.038153 1.253741
v -0.420715 0.038967 1.235580
v -0.485098 0.045771 1.218926
v -0.541296 0.047303 1.217330
v -0.602239 0.058381 1.210529
v -0.662781 0.068943 1.209504
v -0.720964 0.090528 1.210801
v -0.780929 0.066474 1.212899
v -0.748054 0.013633 1.198549
v -0.686288 0.012870 1.190720
v -0.627288 0.032698 1.183077
v -0.565036 0.043801 1.181205
v -0.497840 0.013000 1.156012
v -0.436309 0.037516 1.181917
v -0.373665 0.013660 1.175281
v -0.307212 0.013236 1.176277
v -0.243704 0.029530 1.182450
v -0.185569 0.060535 1.198275
v -0.124538 0.080472 1.216506
v -0.069396 0.110296 1.235880
v -0.008751 0.148323 1.257695
v 0.006132 0.078012 1.254739
v 0.068488 0.094840 1.270440
v 0.070143 0.035423 1.282075
v 0.115078 0.013648 1.320511
v 0.157487 0.044033 1.349715
v 0.158274 0.105986 1.326163
v 0.182409 0.046733 1.333393
v 0.240916 0.076991 1.396640
v 0.279862 0.083618 1.438358
v 0.288747 0.168457 1.450095
v 0.314995 0.170221 1.487941
v 0.297168 0.057993 1.435757
v 0.308626 0.013001 1.456497
v 0.354459 0.017268 1.487529
v 0.393986 0.046319 1.514522
v 0.410786 0.097019 1.523780
v 0.471301 0.082106 1.554646
v 0.481882 0.134701 1.576557
v 0.456534 0.186356 1.573677
v 0.473971 0.205127 1.625706
v 0.495238 0.180183 1.678459
v 0.473509 0.143101 1.635902
v 0.448916 0.098166 1.606689
v 0.496201 0.063750 1.641937
v 0.519661 0.011376 1.659987
v 0.569758 0.013336 1.696076
v 0.621636 0.015398 1.733844
v 0.668773 0.027041 1.774313
v 0.712880 0.013082 1.817065
v 0.754625 0.011478 1.865152
v 0.794084 0.024117 1.911791
v 0.837252 0.012706 1.953245
v 0.874119 0.012967 2.004165
v 0.910764 0.015479 2.052952
v 0.939638 0.028007 2.107589
v 0.971799 0.013000 2.155030
v 0.821076 0.032110 2.180502
v 0.792361 0.050959 2.135624
v 0.753135 0.031848 2.086874
v 0.727941 0.029016 2.042955
v 0.692479 0.026157 1.999979
v 0.651851 0.025474 1.958684
v 0.615614 0.025223 1.920887
v 0.580970 0.043828 1.888382
v 0.534143 0.036155 1.856645
v 0.498070 0.062896 1.834451
v 0.482710 0.094399 1.822350
v 0.453289 0.119070 1.805654
v 0.427159 0.143482 1.792305
v 0.402359 0.164507 1.778989
v 0.378801 0.183228 1.765941
v 0.356906 0.199315 1.752779
v 0.332434 0.208115 1.736494
v 0.300478 0.195644 1.721251
v 0.280070 0.196553 1.705595
v 0.199866 0.075408 1.749081
v 0.188295 0.069310 1.740900
v 0.241981 0.181506 1.674282
v 0.223955 0.192733 1.664236
v 0.205882 0.202991 1.654182
v 0.136823 0.125469 1.686986
v 0.129393 0.141919 1.669265
v 0.114363 0.138013 1.661831
v 0.099058 0.134668 1.654372
v 0.083466 0.132251 1.646834
v 0.067514 0.130515 1.639133
v 0.068973 0.204778 1.570802
v 0.030421 0.139151 1.622670
v 0.013320 0.208269 1.548072
v -0.010776 0.206245 1.536231
v -0.038680 0.210963 1.516012
v -0.062155 0.196191 1.510923
v -0.089387 0.185217 1.497806
v -0.121490 0.174892 1.476986
v -0.148537 0.156487 1.467200
v -0.178083 0.136888 1.455254
v -0.210684 0.114988 1.441839
v -0.256734 0.104461 1.419798
v -0.295594 0.083186 1.409063
v -0.343587 0.072088 1.394580
v -0.389575 0.051388 1.386050
v -0.449942 0.055952 1.367309
v -0.514261 0.069943 1.347280
v -0.571633 0.067916 1.341934
v -0.630243 0.088386 1.333882
v -0.687435 0.095686 1.336636
v -0.734311 0.074697 1.351423
v -0.743856 0.019258 1.348629
v -0.687140 0.012955 1.335612
v -0.630160 0.016171 1.327771
v -0.570310 0.021823 1.317333
v -0.509940 0.028565 1.310927
v -0.448056 0.020342 1.305257
v -0.383812 0.016047 1.300724
v -0.321952 0.027580 1.302044
v -0.260670 0.036611 1.309996
v -0.199485 0.045317 1.317362
v -0.138544 0.051781 1.327590
v -0.074269 0.052947 1.332704
v -0.078077 0.118408 1.344361
v -0.018039 0.128456 1.355112
v 0.038051 0.118356 1.376565
v 0.023297 0.058031 1.386478
v 0.070239 0.168845 1.358655
v 0.044207 0.048911 1.354679
v 0.088777 0.051829 1.398924
v 0.125600 0.116818 1.427177
v 0.169616 0.136046 1.462493
v 0.189051 0.102997 1.504761
v 0.203299 0.180375 1.526570
v 0.228163 0.162233 1.559522
v 0.228270 0.013001 1.514541
v 0.268335 0.112857 1.545496
v 0.290505 0.022377 1.580106
v 0.317259 0.068829 1.593735
v 0.371888 0.034497 1.612984
v 0.411652 0.056854 1.647346
v 0.412103 0.112041 1.662112
v 0.373075 0.142277 1.635016
v 0.368403 0.193423 1.663611
v 0.390307 0.201475 1.714895
v 0.371969 0.156669 1.689463
v 0.388323 0.100639 1.703214
v 0.408210 0.043354 1.715057
v 0.448402 0.013214 1.746272
v 0.491729 0.035043 1.787982
v 0.539465 0.022210 1.824920
v 0.585491 0.014465 1.863728
v 0.627273 0.013280 1.907539
v 0.666620 0.013107 1.953767
v 0.702944 0.014189 2.004762
v 0.739346 0.012421 2.050523
v 0.768517 0.025205 2.105390
v 0.802053 0.016541 2.147989
v 0.830106 0.013134 2.197739
v 0.858158 0.012579 2.244183
v 0.666644 0.023446 2.210926
v 0.622148 0.018381 2.163887
v 0.611941 0.031822 2.125412
v 0.583673 0.041026 2.086653
v 0.513869 0.036533 2.040327
v 0.466899 0.042145 2.005015
v 0.426796 0.054874 1.974998
v 0.339293 0.054317 1.940830
v 0.305411 0.068689 1.920657
v 0.277204 0.083600 1.904482
v 0.254005 0.099711 1.891919
v 0.234083 0.115638 1.882881
v 0.216739 0.131363 1.876613
v 0.200081 0.144188 1.869497
v 0.183767 0.148565 1.859078
v 0.169267 0.148213 1.847977
v 0.155811 0.146435 1.837339
v 0.143384 0.143883 1.826811
v 0.132870 0.137743 1.816584
v 0.122341 0.133789 1.807009
v 0.112048 0.130026 1.797817
v 0.101965 0.126302 1.789000
v 0.088576 0.132373 1.785486
v 0.080581 0.143152 1.786002
v 0.075360 0.154910 1.788989
v 0.063906 0.155857 1.782948
v 0.052853 0.157119 1.775730
v 0.040653 0.157208 1.770695
v 0.028934 0.156862 1.764782
v 0.016945 0.155443 1.758986
v 0.004600 0.153268 1.753356
v -0.006268 0.161488 1.749039
v -0.019489 0.164227 1.742748
v -0.031543 0.173500 1.738163
v -0.043996 0.183755 1.733049
v -0.061192 0.193223 1.726450
v -0.080539 0.189124 1.719218
v -0.092861 0.173279 1.708914
v -0.109013 0.161436 1.697528
v -0.127750 0.147884 1.685660
v -0.150615 0.134760 1.672242
v -0.195455 0.123463 1.638609
v -0.230306 0.112032 1.620574
v -0.269932 0.094307 1.599687
v -0.321428 0.084842 1.575704
v -0.382906 0.067862 1.546514
v -0.464847 0.074541 1.506070
v -0.528299 0.073232 1.487961
v -0.583487 0.079358 1.480902
v -0.631354 0.071889 1.484597
v -0.688837 0.082561 1.481084
v -0.727689 0.036673 1.474717
v -0.680676 0.012945 1.464518
v -0.627989 0.020902 1.456775
v -0.578155 0.038791 1.455189
v -0.518733 0.033564 1.443556
v -0.454138 0.023450 1.429989
v -0.394162 0.026206 1.425727
v -0.332142 0.017155 1.421412
v -0.270164 0.013054 1.420310
v -0.210307 0.016182 1.427627
v -0.155914 0.042830 1.443797
v -0.104181 0.070763 1.455780
v -0.064063 0.113451 1.463357
v -0.041064 0.182093 1.478242
v 0.000648 0.121405 1.484275
v -0.048995 0.099328 1.461888
v -0.002776 0.063887 1.451170
v 0.066083 0.089930 1.468042
v 0.017021 0.109087 1.474340
v 0.056768 0.138048 1.516224
v 0.099088 0.115211 1.547414
v 0.064724 0.064689 1.499438
v 0.111807 0.040488 1.515753
v 0.135728 0.024111 1.562473
v 0.167081 0.013018 1.609168
v 0.209223 0.038879 1.638985
v 0.235817 0.082119 1.658828
v 0.272031 0.067099 1.696988
v 0.307348 0.013001 1.702250
v 0.344257 0.036180 1.736603
v 0.344261 0.091021 1.749876
v 0.319230 0.139845 1.733927
v 0.270806 0.154078 1.707793
v 0.284443 0.187512 1.748940
v 0.318994 0.167375 1.789555
v 0.343368 0.118640 1.811415
v 0.365550 0.068517 1.828296
v 0.373836 0.012979 1.835426
v 0.419691 0.012985 1.871481
v 0.463088 0.012996 1.910609
v 0.503409 0.023558 1.952395
v 0.541264 0.016802 1.998896
v 0.578396 0.012998 2.042389
v 0.612703 0.012996 2.092260
v 0.645609 0.015552 2.137359
v 0.675398 0.013804 2.182786
v 0.702745 0.017758 2.232751
v 0.728067 0.015110 2.280230
v 0.750696 0.013125 2.327872
v 0.535056 0.044305 2.245282
v 0.510182 0.058821 2.206398
v 0.476162 0.058891 2.168805
v 0.429046 0.046103 2.131855
v 0.383580 0.053450 2.097635
v 0.283959 0.059215 2.045476
v 0.264309 0.083567 2.036488
v 0.224803 0.089911 2.014150
v 0.193917 0.096957 1.997725
v 0.167944 0.102614 1.984138
v 0.145968 0.106343 1.972060
v 0.128175 0.108685 1.961608
v 0.112432 0.110673 1.951991
v 0.099625 0.110225 1.942407
v 0.087493 0.107261 1.931962
v 0.077861 0.102244 1.922382
v 0.069490 0.096415 1.913659
v 0.060512 0.092875 1.905568
v 0.051338 0.081782 1.897599
v 0.042769 0.079243 1.890882
v 0.034476 0.077187 1.884409
v 0.025691 0.081427 1.881046
v 0.019436 0.088930 1.879218
v 0.015259 0.097984 1.880278
v 0.011858 0.108097 1.880997
v 0.005564 0.116141 1.880866
v 0.000627 0.125114 1.881146
v -0.008950 0.130203 1.879533
v -0.015998 0.137207 1.877498
v -0.025074 0.140306 1.873610
v -0.034440 0.143762 1.870026
v -0.044211 0.146406 1.865817
v -0.054382 0.148575 1.861094
v -0.065126 0.151211 1.856402
v -0.076148 0.154954 1.851654
v -0.089191 0.159548 1.845935
v -0.102707 0.169755 1.844096
v -0.118793 0.167648 1.836616
v -0.131710 0.164798 1.826725
v -0.147008 0.157947 1.817102
v -0.165559 0.152765 1.806636
v -0.189320 0.143214 1.791692
v -0.212513 0.130356 1.777781
v -0.234278 0.107824 1.761778
v -0.286023 0.096010 1.732229
v -0.360537 0.084531 1.690458
v -0.412394 0.076664 1.669475
v -0.481877 0.065269 1.639173
v -0.540377 0.071447 1.624128
v -0.594027 0.071564 1.616841
v -0.655879 0.085959 1.606779
v -0.703827 0.059920 1.602811
v -0.674407 0.012957 1.587953
v -0.625649 0.023729 1.580784
v -0.566361 0.012947 1.564141
v -0.508958 0.012707 1.554110
v -0.452938 0.013259 1.548080
v -0.401659 0.032004 1.548957
v -0.344130 0.015775 1.544734
v -0.288343 0.019756 1.550899
v -0.234282 0.035466 1.555512
v -0.180797 0.054026 1.560841
v -0.166405 0.122753 1.565846
v -0.123830 0.156425 1.571285
v -0.078229 0.182267 1.585006
v -0.067703 0.108942 1.576052
v -0.013687 0.130653 1.563085
v 0.001304 0.070898 1.556251
v 0.051262 0.057495 1.579895
v 0.004478 0.067470 1.587497
v -0.023936 0.099411 1.603000
v 0.010112 0.068998 1.598159
v 0.036832 0.012358 1.595367
v 0.075290 0.032743 1.623634
v 0.061252 0.084079 1.624293
v 0.096359 0.089080 1.663943
v 0.126468 0.079116 1.706531
v 0.154116 0.026542 1.712668
v 0.190673 0.013068 1.748652
v 0.232846 0.013290 1.786740
v 0.273017 0.020403 1.823498
v 0.260579 0.074931 1.823792
v 0.248474 0.129586 1.822264
v 0.209805 0.104924 1.788956
v 0.193111 0.154896 1.807050
v 0.225460 0.140907 1.851861
v 0.254064 0.102199 1.880993
v 0.271371 0.048864 1.889051
v 0.301413 0.023918 1.931411
v 0.343186 0.035754 1.967202
v 0.381445 0.019990 2.003035
v 0.419608 0.017873 2.043310
v 0.457015 0.012775 2.082627
v 0.491803 0.012997 2.125959
v 0.524399 0.031400 2.164169
v 0.552832 0.012672 2.202839
v 0.581823 0.012382 2.251408
v 0.608240 0.012948 2.297173
v 0.632400 0.029361 2.351530
v 0.654070 0.053864 2.401603
v 0.419933 0.083026 2.288185
v 0.367868 0.071228 2.244254
v 0.330277 0.056205 2.213081
v 0.284982 0.040658 2.180432
v 0.247849 0.042930 2.152989
v 0.174097 0.054980 2.113798
v 0.139158 0.055674 2.091194
v 0.113025 0.046931 2.071106
v 0.089154 0.047537 2.055963
v 0.069261 0.050210 2.044221
v 0.054321 0.051669 2.034882
v 0.041971 0.051260 2.026069
v 0.030581 0.051986 2.018384
v 0.019987 0.053216 2.011402
v 0.010076 0.054276 2.004720
v -0.001339 0.042022 1.992495
v -0.008698 0.038798 1.986978
v -0.015901 0.036083 1.981131
v -0.022679 0.039696 1.977453
v -0.029680 0.041234 1.972889
v -0.036161 0.040778 1.967508
v -0.035108 0.047621 1.972350
v -0.045313 0.060636 1.974588
v -0.045416 0.067780 1.977206
v -0.037209 0.079362 1.981573
v -0.028904 0.092075 1.986108
v -0.033027 0.098549 1.987284
v -0.041706 0.100828 1.983858
v -0.050656 0.102901 1.979542
v -0.060872 0.106615 1.975185
v -0.073077 0.098318 1.969635
v -0.080888 0.097917 1.966297
v -0.088537 0.099402 1.963038
v -0.096634 0.102029 1.959583
v -0.105988 0.108906 1.955795
v -0.114462 0.113586 1.952778
v -0.124174 0.114313 1.948290
v -0.134821 0.115467 1.944165
v -0.146618 0.117827 1.939742
v -0.160168 0.122480 1.935600
v -0.175403 0.122243 1.928966
v -0.192944 0.119275 1.920844
v -0.196025 0.099750 1.907893
v -0.265306 0.094845 1.872422
v -0.295679 0.084144 1.855385
v -0.332055 0.073581 1.837155
v -0.372062 0.059908 1.817270
v -0.449026 0.054107 1.780985
v -0.498612 0.045289 1.764635
v -0.560931 0.069030 1.747161
v -0.618046 0.081600 1.736764
v -0.673170 0.074376 1.729714
v -0.676255 0.021946 1.720438
v -0.628189 0.013780 1.709135
v -0.569870 0.016599 1.692829
v -0.514093 0.016115 1.681120
v -0.465301 0.034032 1.674347
v -0.411781 0.024525 1.670463
v -0.354913 0.019675 1.666803
v -0.304994 0.037957 1.670147
v -0.246441 0.030748 1.670427
v -0.204077 0.066485 1.672879
v -0.150325 0.089215 1.677998
v -0.101246 0.117902 1.681821
v -0.049588 0.115238 1.672650
v -0.053683 0.191436 1.685080
v 0.003982 0.124325 1.679781
v -0.043695 0.112749 1.655189
v 0.010117 0.064102 1.672909
v -0.014910 0.017738 1.678576
v -0.067235 0.056966 1.686195
v -0.077659 0.016887 1.658815
v -0.027418 0.014245 1.690167
v 0.020256 0.015567 1.721726
v -0.012743 0.053872 1.704859
v 0.012715 0.080550 1.740794
v 0.039383 0.025518 1.756256
v 0.076146 0.012694 1.793157
v 0.113895 0.012489 1.831259
v 0.154599 0.014068 1.868934
v 0.158745 0.019196 1.814952
v 0.160594 0.051566 1.771371
v 0.164565 0.055454 1.834628
v 0.168942 0.070912 1.888249
v 0.114734 0.095322 1.871932
v 0.132222 0.115513 1.917753
v 0.164388 0.081387 1.947037
v 0.196266 0.048968 1.978490
v 0.235260 0.074554 2.036707
v 0.263968 0.018583 2.049457
v 0.300735 0.018268 2.088146
v 0.337078 0.021704 2.129903
v 0.371655 0.025323 2.171546
v 0.402251 0.060392 2.231081
v 0.433691 0.032280 2.257192
v 0.461351 0.042917 2.301432
v 0.488160 0.050501 2.345305
v 0.511934 0.064182 2.394167
v 0.533589 0.073437 2.438874
v 0.551983 0.086148 2.489610
v 0.316439 0.040364 2.345417
v 0.279783 0.053351 2.318919
v 0.221188 0.052276 2.276830
v 0.174919 0.037784 2.243787
v 0.145799 0.036910 2.221972
v 0.081998 0.015211 2.180203
v 0.058298 0.015010 2.164432
v 0.038178 0.014136 2.150934
v 0.020699 0.013478 2.139270
v 0.005343 0.013422 2.129132
v -0.008398 0.013411 2.120000
v -0.020635 0.013710 2.111598
v -0.031818 0.014470 2.104120
v -0.042084 0.015638 2.097317
v -0.051627 0.016242 2.090921
v -0.061725 0.016577 2.084405
v -0.070067 0.015783 2.078676
v -0.078107 0.017510 2.073472
v -0.085758 0.018542 2.068311
v -0.092655 0.022218 2.063736
v -0.116268 0.030697 2.049525
v -0.188678 0.065035 2.012010
v -0.187902 0.066490 2.016653
v -0.189512 0.069309 2.015944
v -0.191034 0.069705 2.011591
v -0.192666 0.073562 2.011844
v -0.195116 0.074610 2.016675
v -0.094608 0.088761 2.083199
v -0.099931 0.093004 2.080772
v -0.106552 0.098384 2.078146
v -0.112945 0.102718 2.074548
v -0.121108 0.101976 2.071266
v -0.129218 0.100791 2.067883
v -0.136670 0.098813 2.064543
v -0.144887 0.096887 2.060789
v -0.153404 0.094523 2.056731
v -0.161882 0.090836 2.051816
v -0.171868 0.088686 2.047180
v -0.181963 0.085107 2.041577
v -0.192561 0.080538 2.035155
v -0.201752 0.072642 2.027193
v -0.210719 0.062760 2.018070
v -0.222607 0.052688 2.008077
v -0.242151 0.045706 1.996591
v -0.292902 0.044360 1.972942
v -0.325329 0.039466 1.958714
v -0.361099 0.030158 1.942066
v -0.460304 0.050347 1.898644
v -0.492377 0.028693 1.886509
v -0.529165 0.026470 1.879802
v -0.610611 0.085948 1.854092
v -0.659993 0.076302 1.848454
v -0.667705 0.028748 1.840446
v -0.614240 0.012986 1.823851
v -0.566154 0.021202 1.812609
v -0.503827 0.012999 1.796032
v -0.448833 0.012993 1.784016
v -0.412180 0.046111 1.783848
v -0.356246 0.013007 1.779297
v -0.301292 0.013000 1.779347
v -0.249917 0.036137 1.782808
v -0.197779 0.051731 1.784681
v -0.139551 0.043967 1.779512
v -0.090574 0.070046 1.782900
v -0.130832 0.142013 1.768429
v -0.090341 0.175052 1.789223
v -0.044899 0.150538 1.799212
v -0.083845 0.080766 1.762835
v -0.026515 0.086553 1.783569
v -0.076398 0.063054 1.773105
v -0.089542 0.019150 1.782311
v -0.126935 0.038700 1.755471
v -0.093013 0.015363 1.785446
v -0.096388 0.010599 1.731345
v -0.085342 0.003902 1.784732
v -0.071926 0.046495 1.810422
v -0.040672 0.017335 1.836104
v -0.003088 0.013016 1.874120
v 0.034400 0.011212 1.911464
v 0.039573 0.015774 1.859229
v 0.044483 0.020937 1.806549
v 0.045942 0.055100 1.766983
v 0.053327 0.046954 1.843717
v 0.055277 0.061013 1.903655
v 0.065285 0.027457 1.947354
v 0.045404 0.071922 1.973561
v 0.077342 0.058169 2.014379
v 0.108876 0.028606 2.046227
v 0.145828 0.013642 2.085577
v 0.181820 0.011310 2.125038
v 0.218764 0.016328 2.166651
v 0.252894 0.032642 2.204986
v 0.284305 0.015350 2.242734
v 0.315252 0.012983 2.285308
v 0.346867 0.025915 2.333422
v 0.377169 0.016839 2.379838
v 0.404661 0.016261 2.421016
v 0.433817 0.014931 2.468204
v 0.459545 0.013543 2.508439
v 0.487907 0.012999 2.559423
v 0.220986 0.017157 2.412870
v 0.179336 0.022486 2.381672
v 0.142617 0.034967 2.357935
v 0.099244 0.039235 2.327952
v 0.049092 0.013052 2.293199
v 0.021506 0.013768 2.274945
v -0.002051 0.012998 2.259302
v -0.022289 0.012925 2.245774
v -0.039923 0.012967 2.234013
v -0.055459 0.013002 2.223689
v -0.073058 0.012952 2.211919
v -0.085003 0.013000 2.203906
v -0.095890 0.013072 2.196657
v -0.109249 0.012126 2.187897
v -0.118268 0.012509 2.181950
v -0.126739 0.012970 2.176349
v -0.134706 0.012999 2.170975
v -0.142322 0.013000 2.165854
v -0.149611 0.013043 2.160908
v -0.156283 0.014077 2.156159
v -0.151749 0.018677 2.158005
v -0.222482 0.011245 2.108596
v 0.001425 0.034520 2.259256
v -0.011813 0.049868 2.257791
v -0.224311 0.015871 2.103017
v -0.226711 0.011171 2.103827
v -0.229594 0.012688 2.103978
v -0.229461 0.017007 2.103762
v -0.228844 0.014807 2.107253
v -0.227077 0.014357 2.111683
v -0.230569 0.016010 2.110548
v -0.158535 0.059429 2.168376
v -0.166975 0.064064 2.167272
v -0.173134 0.054283 2.161191
v -0.179795 0.050395 2.157098
v -0.186298 0.045562 2.152569
v -0.193435 0.040777 2.147647
v -0.201206 0.035886 2.142292
v -0.209764 0.030953 2.136388
v -0.218772 0.025196 2.129779
v -0.228332 0.018398 2.122368
v -0.240626 0.013003 2.114721
v -0.256692 0.012999 2.107705
v -0.275019 0.012994 2.099665
v -0.296443 0.013252 2.090834
v -0.322432 0.012982 2.080855
v -0.427087 0.042444 2.035553
v -0.484625 0.047866 2.010962
v -0.532123 0.040252 1.991443
v -0.494994 0.011552 2.007432
v -0.618560 0.092548 1.967704
v -0.659555 0.059980 1.960737
v -0.649170 0.012991 1.950417
v -0.592613 0.012780 1.934735
v -0.539845 0.012874 1.921576
v -0.485974 0.012879 1.908210
v -0.432246 0.012895 1.896312
v -0.379791 0.012850 1.886077
v -0.339256 0.052441 1.883043
v -0.302415 0.012961 1.891897
v -0.244221 0.012999 1.892087
v -0.190552 0.031972 1.894441
v -0.132493 0.043945 1.893088
v -0.172828 0.047511 1.851494
v -0.183882 0.129173 1.866607
v -0.133658 0.128261 1.884278
v -0.081749 0.114652 1.898258
v -0.108081 0.038829 1.864066
v -0.073099 0.083030 1.886168
v -0.082523 0.028218 1.879902
v -0.143902 0.037586 1.877423
v -0.188684 0.037108 1.849523
v -0.197150 0.045814 1.795879
v -0.206499 0.014954 1.756412
v -0.194790 0.011287 1.810790
v -0.163590 0.011188 1.863421
v -0.123103 0.014798 1.924076
v -0.086266 0.012889 1.959125
v -0.075635 0.029702 1.902926
v -0.071352 0.033786 1.851638
v -0.063489 0.054028 1.805792
v -0.010255 0.033741 1.879879
v -0.058221 0.053975 1.856384
v -0.054067 0.029246 1.907858
v -0.045359 0.013007 1.961068
v -0.038112 0.012386 2.017321
v -0.012398 0.012929 2.070635
v 0.022633 0.013199 2.116797
v 0.060087 0.011087 2.158809
v 0.097989 0.011236 2.200632
v 0.135464 0.013672 2.242240
v 0.168302 0.039332 2.278956
v 0.195633 0.012845 2.313215
v 0.227198 0.011962 2.357942
v 0.258324 0.023742 2.405005
v 0.286850 0.012998 2.448077
v 0.314001 0.012923 2.489001
v 0.343927 0.012980 2.538211
v 0.371302 0.012989 2.584219
v 0.395473 0.012877 2.625631
vn 0.3608 0.9303 -0.0660
vn 0.3556 0.9327 -0.0607
vn 0.2999 0.9487 -0.0999
vn 0.1993 0.9677 -0.1547
vn 0.1979 0.9771 -0.0782
vn 0.2620 0.9631 -0.0611
vn 0.2635 0.9485 -0.1758
vn 0.2701 0.9399 -0.2090
vn 0.2912 0.9317 -0.2170
vn 0.2692 0.9412 -0.2041
vn 0.1820 0.9683 -0.1713
vn 0.1801 0.9833 0.0252
vn 0.3495 0.8854 0.3066
vn 0.4291 0.8500 0.3056
vn 0.5581 0.7565 0.3409
vn 0.5644 0.7596 0.3231
vn 0.0210 0.9746 -0.2229
vn -0.4250 0.6619 -0.6175
vn -0.2221 0.8533 -0.4718
vn -0.1402 0.9097 -0.3909
vn -0.0800 0.9387 -0.3353
vn -0.0169 0.9587 -0.2841
vn 0.1041 0.9683 -0.2272
vn 0.1041 0.9554 -0.2763
vn -0.0050 0.9369 -0.3496
vn -0.0298 0.9507 -0.3088
vn 0.0446 0.9813 -0.1874
vn 0.1760 0.9837 -0.0365
vn 0.0020 1.0000 -0.0085
vn -0.1018 0.9935 0.0501
vn 0.0344 0.9891 0.1432
vn 0.0752 0.9853 0.1531
vn 0.0443 0.9866 0.1568
vn 0.1394 0.9860 0.0913
vn 0.0777 0.9810 -0.1776
vn -0.1735 0.9085 -0.3800
vn -0.1876 0.9124 -0.3637
vn -0.1458 0.9560 -0.2548
vn 0.0098 0.9948 -0.1016
vn -0.0202 0.9998 -0.0075
vn -0.0668 0.9974 0.0285
vn -0.1103 0.9932 0.0363
vn -0.0748 0.9962 0.0439
vn -0.1506 0.9886 0.0072
vn -0.1130 0.9918 -0.0597
vn 0.1726 0.9786 -0.1121
vn 0.0585 0.9966 -0.0588
vn 0.1517 0.9883 0.0184
vn 0.1886 0.9816 -0.0305
vn -0.5353 0.8444 0.0227
vn -0.8379 -0.5270 0.1420
vn -0.0316 -0.9992 0.0254
vn 0.0502 -0.9984 0.0267
vn 0.0674 -0.9935 0.0913
vn 0.0208 -0.9916 0.1277
vn -0.0079 -0.9983 0.0576
vn 0.0323 -0.9946 -0.0988
vn 0.1961 -0.9746 -0.1082
vn 0.1588 -0.9838 0.0835
vn -0.0362 -0.9767 0.2115
vn -0.1550 -0.9752 0.1581
vn -0.1474 -0.9887 -0.0283
vn 0.0533 -0.9851 -0.1637
vn 0.1430 -0.9641 -0.2235
vn 0.1989 -0.9383 -0.2829
vn 0.2745 -0.8933 -0.3559
vn 0.3916 -0.8996 -0.1935
vn 0.0742 -0.9957 -0.0548
vn -0.2750 -0.9464 -0.1694
vn 0.2532 -0.9645 -0.0744
vn 0.0305 -0.9825 -0.1837
vn -0.2602 -0.9636 0.0619
vn 0.4540 0.1164 0.8834
vn 0.5259 -0.3371 0.7809
vn -0.0634 -0.9198 0.3872
vn -0.1398 -0.9878 0.0693
vn 0.2891 -0.8161 0.5004
vn 0.4800 -0.6098 0.6306
vn 0.5349 -0.7774 0.3310
vn 0.7400 -0.5491 0.3885
vn 0.8309 -0.1828 0.5256
vn 0.2499 0.8702 0.4246
vn -0.9719 -0.0831 -0.2200
vn -0.1705 -0.8611 -0.4789
vn -0.8675 -0.1916 -0.4590
vn -0.9885 0.1226 -0.0887
vn -0.7019 -0.6601 -0.2675
vn 0.2521 -0.9275 0.2761
vn 0.3617 -0.7527 0.5501
vn -0.0455 -0.9865 0.1573
vn -0.1891 -0.9726 -0.1354
vn -0.0741 -0.9815 -0.1766
vn 0.0377 -0.9890 -0.1430
vn 0.0209 -0.9989 0.0423
vn -0.0686 -0.9927 0.0991
vn -0.0374 -0.9987 0.0359
vn -0.0531 -0.9981 0.0311
vn -0.1371 -0.9882 0.0685
vn -0.1495 -0.9888 -0.0053
vn -0.1657 -0.9785 -0.1232
vn 0.3447 0.9350 -0.0828
vn 0.3042 0.9465 -0.1076
vn 0.1992 0.9670 -0.1585
vn 0.1285 0.9794 -0.1557
vn 0.1398 0.9881 -0.0640
vn 0.1362 0.9903 -0.0262
vn 0.0952 0.9939 -0.0557
vn 0.0940 0.9948 -0.0389
vn 0.1330 0.9906 -0.0307
vn 0.1458 0.9889 -0.0299
vn 0.0726 0.9933 -0.0897
vn 0.1798 0.9821 0.0563
vn 0.4165 0.8451 0.3350
vn 0.4995 0.8038 0.3231
vn 0.5801 0.7296 0.3621
vn 0.4652 0.8346 0.2949
vn -0.1215 0.9615 -0.2465
vn -0.3867 0.7372 -0.5541
vn -0.2764 0.8307 -0.4832
vn -0.1618 0.9158 -0.3676
vn -0.0828 0.9476 -0.3085
vn -0.0178 0.9633 -0.2677
vn 0.0888 0.9767 -0.1953
vn 0.1247 0.9737 -0.1908
vn 0.0155 0.9548 -0.2968
vn -0.0381 0.9408 -0.3367
vn 0.0109 0.9586 -0.2844
vn 0.0790 0.9811 -0.1767
vn -0.0379 0.9890 -0.1427
vn -0.0822 0.9856 -0.1480
vn 0.0976 0.9949 -0.0253
vn 0.1525 0.9882 0.0114
vn 0.1360 0.9907 0.0082
vn 0.2260 0.9735 0.0348
vn 0.1589 0.9861 -0.0491
vn -0.4223 0.8797 -0.2187
vn -0.3238 0.9235 -0.2057
vn -0.1884 0.9589 -0.2120
vn -0.1367 0.9807 -0.1401
vn -0.0793 0.9967 -0.0200
vn -0.1399 0.9890 0.0481
vn -0.0979 0.9921 0.0789
vn -0.0879 0.9941 0.0637
vn -0.0505 0.9986 0.0145
vn -0.0352 0.9965 -0.0764
vn 0.1321 0.9842 -0.1177
vn 0.0456 0.9954 -0.0839
vn 0.1046 0.9877 -0.1161
vn 0.1918 0.9773 -0.0900
vn -0.4996 0.8661 0.0178
vn -0.8810 -0.4480 0.1520
vn -0.0715 -0.9967 0.0394
vn 0.0827 -0.9963 0.0218
vn 0.0630 -0.9972 0.0401
vn -0.0216 -0.9995 0.0229
vn 0.0097 -0.9999 0.0081
vn -0.0121 -0.9998 -0.0145
vn 0.2129 -0.9767 -0.0277
vn 0.2376 -0.9709 0.0299
vn -0.0069 -0.9988 0.0488
vn -0.1059 -0.9931 0.0504
vn -0.2305 -0.9731 -0.0071
vn -0.0546 -0.9985 -0.0006
vn 0.1240 -0.9855 0.1158
vn 0.0038 -0.9926 0.1215
vn -0.0509 -0.9976 0.0472
vn 0.1357 -0.9907 0.0122
vn -0.0249 -0.9848 -0.1717
vn -0.1651 -0.9589 -0.2306
vn 0.2057 -0.9784 0.0185
vn 0.1401 -0.9651 0.2214
vn -0.1923 -0.9804 0.0433
vn -0.2985 -0.4272 -0.8535
vn 0.8799 -0.4311 -0.1998
vn 0.1891 -0.9398 0.2847
vn -0.3951 -0.9168 -0.0575
vn 0.2706 -0.8352 0.4787
vn 0.3457 -0.7470 0.5678
vn 0.4236 -0.9032 -0.0689
vn 0.8141 -0.5631 0.1419
vn 0.9764 -0.1973 0.0879
vn 0.4333 0.8227 0.3679
vn -0.5951 -0.0955 0.7979
vn -0.0232 -0.9533 -0.3012
vn -0.7831 -0.4657 -0.4121
vn -0.9348 0.3280 -0.1365
vn -0.8606 -0.0003 -0.5093
vn 0.2622 -0.7117 0.6518
vn 0.4167 -0.7835 0.4610
vn 0.0376 -0.9992 0.0132
vn -0.1144 -0.9832 -0.1424
vn -0.1415 -0.9789 -0.1475
vn -0.0320 -0.9983 -0.0478
vn 0.0453 -0.9915 0.1223
vn -0.0639 -0.9978 0.0182
vn -0.0201 -0.9998 0.0077
vn -0.0135 -0.9993 0.0348
vn -0.0628 -0.9968 -0.0498
vn -0.0306 -0.9989 0.0367
vn -0.0658 -0.9904 0.1215
vn 0.1502 0.9876 0.0460
vn 0.1108 0.9915 -0.0683
vn 0.0633 0.9744 -0.2159
vn 0.0250 0.9774 -0.2100
vn -0.0348 0.9925 -0.1169
vn -0.0870 0.9962 -0.0061
vn -0.0940 0.9938 0.0587
vn -0.0395 0.9892 0.1413
vn -0.0082 0.9871 0.1600
vn 0.0208 0.9844 0.1746
vn 0.0707 0.9846 0.1596
vn 0.3659 0.9021 0.2288
vn 0.5407 0.7932 0.2803
vn 0.5661 0.7607 0.3176
vn 0.5385 0.7698 0.3427
vn 0.3526 0.9085 0.2242
vn -0.0042 0.9933 -0.1157
vn -0.2271 0.8898 -0.3957
vn -0.2294 0.8448 -0.4835
vn -0.0507 0.9010 -0.4309
vn 0.0207 0.9122 -0.4091
vn 0.0555 0.9194 -0.3893
vn 0.1148 0.9370 -0.3300
vn 0.0755 0.9548 -0.2876
vn -0.0202 0.9627 -0.2698
vn 0.0109 0.9636 -0.2670
vn 0.0088 0.9491 -0.3149
vn -0.0196 0.9390 -0.3435
vn -0.0118 0.9382 -0.3460
vn -0.0254 0.9304 -0.3655
vn 0.2319 0.9409 -0.2468
vn 0.3759 0.9019 -0.2126
vn 0.2921 0.9081 -0.3001
vn 0.3353 0.9103 -0.2429
vn 0.2813 0.9419 -0.1834
vn -0.6810 0.6774 -0.2782
vn -0.6403 0.6112 -0.4652
vn -0.1085 0.9665 -0.2328
vn -0.2517 0.9211 -0.2970
vn -0.1871 0.9546 -0.2317
vn -0.2338 0.9634 -0.1310
vn -0.2290 0.9732 -0.0197
vn -0.0613 0.9974 0.0389
vn 0.0555 0.9984 0.0136
vn 0.0648 0.9979 -0.0088
vn 0.1404 0.9888 -0.0508
vn 0.1529 0.9823 -0.1086
vn 0.1560 0.9695 -0.1890
vn 0.1079 0.9828 -0.1498
vn -0.4623 0.8867 0.0028
vn -0.9171 -0.3395 0.2091
vn -0.1077 -0.9855 0.1311
vn 0.0452 -0.9968 0.0654
vn -0.0034 -0.9999 -0.0159
vn -0.0128 -0.9997 -0.0210
vn 0.0602 -0.9978 0.0261
vn -0.0423 -0.9981 0.0450
vn 0.1168 -0.9930 0.0202
vn 0.1915 -0.9753 -0.1098
vn 0.0998 -0.9846 -0.1432
vn 0.1303 -0.9908 0.0373
vn -0.2434 -0.9563 0.1618
vn -0.1997 -0.9465 0.2534
vn 0.1274 -0.9287 0.3484
vn -0.1849 -0.9663 0.1791
vn -0.3302 -0.9297 -0.1632
vn -0.1295 -0.9593 -0.2510
vn 0.0511 -0.9719 -0.2298
vn 0.0805 -0.9960 -0.0397
vn 0.1601 -0.8952 0.4160
vn 0.1725 -0.6809 0.7117
vn -0.3931 -0.8985 0.1955
vn -0.5683 -0.3508 -0.7443
vn 0.0453 -0.9974 -0.0557
vn -0.4898 -0.7883 -0.3724
vn -0.5687 -0.7632 -0.3067
vn 0.2164 -0.9484 0.2316
vn -0.3390 -0.3908 -0.8558
vn 0.1046 -0.9621 -0.2517
vn 0.3324 -0.7881 0.5181
vn 0.3575 -0.4747 0.8043
vn 0.7405 -0.5624 0.3680
vn -0.4800 -0.8670 -0.1334
vn 0.1173 -0.9929 -0.0199
vn -0.2377 -0.8021 -0.5478
vn -0.7402 0.4834 -0.4674
vn -0.5437 0.8066 -0.2319
vn -0.1063 0.9680 0.2272
vn 0.2137 -0.9321 0.2923
vn 0.0162 -0.9878 -0.1551
vn 0.0076 -0.9871 -0.1601
vn -0.0605 -0.9920 -0.1110
vn -0.0433 -0.9990 0.0139
vn 0.0760 -0.9956 0.0556
vn 0.0052 -0.9963 -0.0854
vn 0.0286 -0.9995 0.0137
vn 0.0241 -0.9996 0.0137
vn -0.0582 -0.9931 -0.1015
vn 0.0602 -0.9908 0.1209
vn 0.2119 -0.9464 0.2439
vn -0.0624 0.9514 0.3015
vn -0.0974 0.9887 0.1138
vn -0.1360 0.9845 -0.1104
vn -0.1824 0.9640 -0.1936
vn -0.2024 0.9664 -0.1586
vn -0.1237 0.9923 -0.0086
vn -0.0896 0.9957 0.0241
vn 0.0031 0.9834 0.1812
vn 0.0029 0.9859 0.1673
vn 0.0515 0.9714 0.2316
vn 0.3649 0.7744 0.5169
vn 0.5139 0.6969 0.5003
vn 0.4929 0.7785 0.3886
vn 0.4731 0.7920 0.3859
vn 0.4645 0.7898 0.4006
vn 0.2872 0.9311 0.2249
vn 0.0797 0.9947 0.0654
vn -0.1296 0.9892 -0.0692
vn -0.2036 0.9603 -0.1904
vn -0.1286 0.9666 -0.2218
vn -0.1295 0.9630 -0.2365
vn -0.0787 0.9820 -0.1718
vn 0.0041 0.9904 -0.1380
vn -0.1116 0.9686 -0.2220
vn -0.0901 0.9797 -0.1792
vn 0.0417 0.9923 -0.1170
vn -0.0460 0.9851 -0.1657
vn -0.0984 0.9742 -0.2031
vn -0.0517 0.9788 -0.1982
vn 0.0397 0.9766 -0.2113
vn 0.3636 0.9250 -0.1107
vn 0.3810 0.9149 -0.1333
vn 0.1799 0.9601 -0.2140
vn 0.1507 0.9707 -0.1874
vn 0.1320 0.9756 -0.1756
vn -0.4586 0.8028 -0.3812
vn -0.4427 0.8457 -0.2981
vn -0.1778 0.9663 -0.1862
vn -0.3334 0.9267 -0.1734
vn -0.3349 0.9255 -0.1768
vn -0.3543 0.9247 -0.1394
vn -0.4185 0.9039 -0.0890
vn -0.2084 0.9778 -0.0224
vn 0.0552 0.9982 0.0212
vn 0.0369 0.9982 0.0465
vn 0.1777 0.9827 0.0528
vn 0.2370 0.9711 0.0287
vn 0.2020 0.9790 0.0271
vn 0.0581 0.9980 0.0249
vn -0.3516 0.9340 0.0639
vn -0.9792 -0.0902 0.1820
vn -0.2069 -0.9768 0.0557
vn -0.0426 -0.9990 0.0094
vn -0.0123 -0.9994 0.0312
vn 0.0389 -0.9978 0.0529
vn 0.0439 -0.9985 0.0322
vn -0.0370 -0.9993 -0.0030
vn -0.0522 -0.9978 -0.0407
vn 0.0291 -0.9952 -0.0933
vn 0.2564 -0.9656 -0.0443
vn 0.4113 -0.9053 0.1064
vn 0.0780 -0.9858 0.1487
vn 0.0437 -0.9635 0.2642
vn 0.0082 -0.9890 0.1479
vn -0.3352 -0.9097 -0.2451
vn -0.4799 -0.7389 -0.4731
vn -0.2751 -0.8670 -0.4155
vn 0.0010 -0.9961 -0.0878
vn 0.3447 -0.8303 0.4379
vn 0.3797 -0.6829 0.6241
vn 0.3860 -0.8599 0.3341
vn 0.1161 -0.9838 -0.1364
vn -0.5574 -0.5450 -0.6263
vn -0.5656 -0.7961 0.2153
vn -0.2302 -0.8983 0.3743
vn -0.1570 -0.4100 -0.8985
vn -0.1279 -0.3171 -0.9397
vn 0.0153 -0.4833 -0.8753
vn 0.5270 -0.8253 0.2029
vn 0.0722 -0.8020 0.5929
vn 0.1418 -0.7298 0.6688
vn 0.0898 -0.7208 0.6873
vn -0.4686 -0.8823 -0.0452
vn -0.6341 -0.7550 -0.1670
vn -0.5133 -0.7286 -0.4535
vn 0.0324 0.2729 -0.9615
vn 0.1610 0.9025 -0.3995
vn -0.8596 -0.0127 -0.5109
vn 0.0021 -0.9994 -0.0338
vn -0.0039 -0.9890 -0.1477
vn 0.0127 -0.9942 -0.1070
vn 0.0787 -0.9965 -0.0280
vn 0.0180 -0.9978 -0.0641
vn 0.0332 -0.9957 -0.0870
vn 0.0718 -0.9973 -0.0122
vn 0.0613 -0.9981 -0.0110
vn 0.0654 -0.9973 -0.0320
vn 0.0260 -0.9996 0.0107
vn 0.0455 -0.9990 -0.0019
vn 0.0949 -0.9944 -0.0463
vn -0.0441 0.9305 0.3636
vn -0.1480 0.9791 0.1394
vn -0.2396 0.9679 -0.0755
vn -0.2173 0.9666 -0.1362
vn -0.1123 0.9920 -0.0573
vn -0.0618 0.9980 -0.0112
vn -0.0102 0.9995 0.0314
vn 0.0574 0.9857 0.1583
vn 0.0497 0.9919 0.1168
vn 0.2564 0.9135 0.3160
vn 0.4890 0.6547 0.5764
vn 0.4780 0.6258 0.6164
vn 0.3934 0.7589 0.5189
vn 0.4101 0.7560 0.5102
vn 0.3824 0.7872 0.4838
vn 0.1662 0.9514 0.2593
vn -0.0711 0.9969 0.0341
vn -0.1794 0.9830 -0.0390
vn -0.3341 0.9381 -0.0917
vn -0.5114 0.8550 -0.0861
vn -0.2228 0.9392 0.2612
vn 0.1556 0.9391 0.3064
vn 0.0451 0.9932 0.1074
vn -0.2178 0.9685 -0.1212
vn -0.1317 0.9909 0.0278
vn -0.0451 0.9959 0.0785
vn -0.2520 0.9677 -0.0105
vn -0.2338 0.9720 0.0233
vn -0.2008 0.9785 0.0470
vn 0.3248 0.9327 0.1570
vn 0.2286 0.9719 0.0559
vn 0.1984 0.9770 0.0786
vn 0.1514 0.9881 0.0263
vn 0.0203 0.9981 -0.0584
vn -0.0006 0.9986 -0.0533
vn -0.2485 0.9650 -0.0842
vn -0.4769 0.8679 -0.1391
vn -0.3900 0.9107 -0.1361
vn -0.4012 0.9129 -0.0752
vn -0.4405 0.8961 -0.0535
vn -0.3853 0.9213 -0.0524
vn -0.4223 0.9035 -0.0728
vn -0.3025 0.9463 -0.1145
vn -0.0586 0.9955 -0.0745
vn -0.0033 0.9997 -0.0226
vn 0.1519 0.9876 -0.0406
vn 0.1820 0.9832 -0.0126
vn 0.1871 0.9817 0.0343
vn 0.1910 0.9814 0.0181
vn -0.1529 0.9867 0.0546
vn -0.9411 0.3011 0.1541
vn -0.4428 -0.8966 0.0001
vn 0.0078 -0.9973 -0.0727
vn 0.0948 -0.9954 -0.0098
vn -0.0006 -1.0000 -0.0007
vn -0.0216 -0.9993 -0.0308
vn -0.0393 -0.9986 -0.0346
vn -0.0846 -0.9961 -0.0247
vn 0.0536 -0.9978 0.0378
vn 0.3052 -0.9488 0.0816
vn 0.3830 -0.9237 -0.0104
vn 0.2839 -0.9518 -0.1157
vn 0.4106 -0.9102 0.0541
vn -0.0817 -0.9966 0.0135
vn -0.4437 -0.8947 -0.0508
vn -0.7070 -0.6992 -0.1060
vn -0.6275 -0.7760 0.0638
vn -0.0606 -0.9958 0.0684
vn 0.3618 -0.7421 0.5643
vn 0.4474 -0.7444 0.4957
vn 0.2043 -0.9766 0.0675
vn 0.1328 -0.9908 -0.0275
vn 0.0148 -0.9915 -0.1293
vn 0.1942 -0.7932 0.5771
vn -0.5941 -0.6675 -0.4488
vn -0.2730 -0.2966 -0.9151
vn -0.2518 -0.8352 -0.4889
vn -0.0958 -0.9937 -0.0578
vn 0.5486 -0.7687 0.3288
vn 0.4453 -0.8953 0.0124
vn 0.6156 -0.7818 0.0988
vn 0.7374 -0.2599 0.6235
vn 0.2227 -0.6432 0.7326
vn -0.3671 -0.9269 0.0786
vn -0.7225 -0.3658 -0.5867
vn -0.2013 0.2845 -0.9373
vn -0.2091 -0.0354 -0.9772
vn -0.3685 -0.7002 -0.6115
vn -0.1628 -0.9689 -0.1862
vn 0.0070 -0.9995 -0.0320
vn -0.0315 -0.9993 -0.0196
vn 0.0270 -0.9996 0.0016
vn -0.0102 -0.9965 -0.0830
vn 0.0133 -0.9997 -0.0190
vn 0.0507 -0.9985 0.0206
vn 0.0276 -0.9989 -0.0390
vn 0.0564 -0.9984 0.0003
vn 0.1000 -0.9949 0.0144
vn 0.0050 -0.9951 -0.0986
vn -0.1065 -0.9738 -0.2011
vn -0.0474 0.9577 0.2839
vn -0.1063 0.9919 0.0692
vn -0.0887 0.9942 -0.0605
vn -0.0211 0.9976 -0.0657
vn 0.0153 0.9988 -0.0463
vn 0.0352 0.9991 -0.0221
vn 0.1087 0.9925 0.0554
vn 0.0986 0.9948 0.0268
vn 0.1619 0.9748 0.1532
vn 0.3318 0.7754 0.5373
vn 0.3816 0.6884 0.6168
vn 0.3601 0.6935 0.6240
vn 0.3332 0.7124 0.6177
vn 0.3124 0.7441 0.5905
vn 0.2262 0.8240 0.5195
vn 0.0646 0.9361 0.3456
vn -0.1496 0.9868 0.0622
vn -0.2278 0.9724 -0.0503
vn -0.4733 0.8342 -0.2831
vn -0.4641 0.7206 -0.5151
vn 0.2688 0.9429 0.1969
vn 0.5414 0.6620 0.5183
vn 0.2834 0.9135 0.2919
vn -0.1532 0.9881 0.0154
vn -0.1502 0.9816 -0.1182
vn 0.0612 0.9855 0.1584
vn -0.1967 0.9787 -0.0585
vn -0.1616 0.9849 -0.0629
vn -0.1236 0.9905 -0.0607
vn 0.4070 0.8994 0.1593
vn 0.1139 0.9848 0.1309
vn -0.0358 0.9993 0.0129
vn 0.3759 0.9169 0.1340
vn 0.1375 0.9905 0.0055
vn 0.0278 0.9981 -0.0549
vn -0.2260 0.9725 -0.0566
vn -0.4264 0.9017 -0.0712
vn -0.4905 0.8652 -0.1041
vn -0.4887 0.8690 -0.0773
vn -0.5065 0.8603 -0.0578
vn -0.3445 0.9347 -0.0877
vn -0.3155 0.9435 -0.1014
vn -0.3279 0.9392 -0.1023
vn -0.2216 0.9691 -0.1086
vn -0.0957 0.9904 -0.0997
vn 0.1212 0.9862 -0.1129
vn 0.0901 0.9906 -0.1032
vn 0.1488 0.9837 -0.1009
vn 0.1773 0.9819 -0.0664
vn -0.0535 0.9984 0.0177
vn -0.7242 0.6709 0.1594
vn -0.7530 -0.6378 0.1618
vn -0.0036 -0.9998 0.0174
vn 0.1628 -0.9865 -0.0171
vn 0.0459 -0.9989 -0.0044
vn -0.0584 -0.9981 0.0170
vn -0.0490 -0.9988 0.0035
vn -0.0378 -0.9992 0.0088
vn 0.0866 -0.9962 0.0118
vn 0.1692 -0.9836 -0.0631
vn 0.2462 -0.9615 -0.1222
vn 0.2715 -0.9535 -0.1312
vn 0.6221 -0.7820 -0.0386
vn 0.7123 -0.6986 0.0682
vn -0.1586 -0.9820 0.1029
vn -0.8597 -0.4781 -0.1797
vn -0.6446 -0.6984 0.3109
vn -0.2684 -0.9567 0.1125
vn -0.6167 -0.7429 -0.2603
vn 0.0955 -0.8519 0.5149
vn 0.0493 -0.9237 0.3798
vn -0.3204 -0.9465 -0.0381
vn 0.3271 -0.9422 0.0720
vn 0.5551 -0.8318 -0.0084
vn -0.1412 -0.5574 -0.8181
vn -0.0191 -0.8259 -0.5635
vn -0.0239 -0.9943 0.1044
vn -0.1628 -0.9721 0.1689
vn 0.0684 -0.9884 0.1357
vn 0.1139 -0.9761 -0.1851
vn 0.6946 -0.6651 0.2742
vn 0.7336 0.2464 0.6334
vn 0.6184 0.2851 0.7323
vn 0.4494 -0.7520 0.4823
vn -0.2438 -0.7485 -0.6167
vn -0.6788 0.0440 -0.7330
vn -0.7858 -0.3649 -0.4993
vn -0.6661 -0.6024 -0.4397
vn -0.2692 -0.9436 -0.1925
vn 0.0410 -0.9989 0.0226
vn -0.0197 -0.9994 -0.0280
vn -0.0209 -0.9994 -0.0291
vn -0.0480 -0.9982 -0.0366
vn 0.0186 -0.9998 0.0118
vn 0.0122 -0.9999 -0.0119
vn 0.0185 -0.9996 0.0193
vn 0.0163 -0.9997 0.0194
vn 0.0004 -0.9999 -0.0148
vn -0.0090 -0.9990 -0.0431
vn -0.0322 -0.9969 -0.0711
vn 0.0191 0.9927 0.1194
vn 0.0998 0.9949 0.0144
vn 0.0723 0.9973 -0.0079
vn 0.0543 0.9953 -0.0801
vn 0.0667 0.9968 -0.0445
vn 0.1281 0.9900 0.0592
vn 0.1664 0.9721 0.1654
vn 0.1419 0.9881 -0.0599
vn 0.2565 0.9406 0.2223
vn 0.2895 0.8483 0.4434
vn 0.2631 0.8224 0.5044
vn 0.2511 0.7842 0.5675
vn 0.2130 0.7786 0.5902
vn 0.0879 0.8587 0.5049
vn -0.0758 0.9229 0.3775
vn -0.2050 0.9394 0.2748
vn -0.3227 0.9369 0.1342
vn -0.3930 0.9176 0.0602
vn -0.5715 0.7901 -0.2216
vn -0.4010 0.8549 -0.3290
vn 0.0407 0.9743 0.2213
vn 0.2222 0.7603 0.6103
vn 0.3905 0.6568 0.6451
vn 0.3981 0.7311 0.5542
vn 0.4410 0.8117 0.3829
vn 0.2919 0.9166 0.2731
vn 0.0984 0.9903 0.0976
vn 0.0818 0.9947 0.0618
vn 0.0506 0.9987 0.0064
vn 0.2210 0.9695 0.1063
vn 0.1756 0.9696 0.1707
vn 0.1364 0.9832 0.1213
vn 0.4108 0.8841 0.2227
vn 0.2769 0.9325 0.2319
vn 0.2236 0.9503 0.2168
vn -0.0136 0.9874 0.1578
vn -0.3254 0.9437 0.0587
vn -0.5045 0.8634 0.0016
vn -0.5227 0.8525 -0.0067
vn -0.4874 0.8729 -0.0238
vn -0.3662 0.9294 -0.0456
vn -0.2844 0.9571 -0.0557
vn -0.4389 0.8985 -0.0048
vn -0.2982 0.9543 -0.0207
vn -0.2050 0.9775 -0.0500
vn -0.0207 0.9963 -0.0833
vn 0.0282 0.9990 -0.0353
vn 0.0507 0.9987 -0.0041
vn 0.0749 0.9969 0.0231
vn 0.0344 0.9987 0.0386
vn -0.3924 0.9168 0.0748
vn -0.9543 -0.2307 0.1899
vn -0.1536 -0.9859 0.0662
vn 0.1368 -0.9906 0.0007
vn 0.0536 -0.9978 -0.0399
vn -0.0680 -0.9963 -0.0530
vn -0.0155 -0.9998 -0.0132
vn -0.0107 -0.9999 0.0120
vn -0.0305 -0.9992 -0.0276
vn 0.0819 -0.9949 -0.0587
vn 0.2326 -0.9724 -0.0159
vn 0.4147 -0.8971 0.1522
vn 0.6627 -0.6809 0.3117
vn 0.7141 -0.6214 0.3223
vn -0.0988 -0.9939 0.0492
vn -0.8422 -0.1401 -0.5206
vn -0.9943 -0.0980 -0.0417
vn -0.1823 -0.9769 0.1114
vn -0.3737 -0.9035 0.2101
vn 0.6276 -0.2838 0.7250
vn 0.3125 -0.9497 0.0217
vn -0.4932 -0.4790 -0.7262
vn -0.3897 -0.5614 -0.7301
vn 0.5186 -0.8386 -0.1667
vn 0.0592 -0.9640 -0.2594
vn -0.1328 -0.9806 0.1443
vn 0.0734 -0.9934 0.0877
vn 0.0084 -0.9843 -0.1765
vn -0.1355 -0.9192 -0.3698
vn -0.0306 -0.9794 -0.1996
vn 0.6600 -0.6018 0.4497
vn 0.7315 0.2274 0.6428
vn 0.4536 0.6808 0.5751
vn 0.6198 0.0541 0.7829
vn 0.2469 -0.9680 -0.0452
vn -0.4871 -0.6502 -0.5831
vn -0.6723 -0.4905 -0.5545
vn -0.6847 -0.5103 -0.5203
vn -0.3120 -0.9262 -0.2117
vn 0.0073 -0.9999 0.0087
vn -0.0288 -0.9992 -0.0279
vn -0.0162 -0.9998 -0.0078
vn -0.0433 -0.9982 -0.0406
vn 0.0029 -0.9996 0.0268
vn -0.0211 -0.9994 0.0283
vn -0.0100 -0.9999 -0.0091
vn 0.0355 -0.9994 -0.0044
vn 0.0089 -0.9999 0.0103
vn -0.0254 -0.9967 0.0771
vn -0.0562 -0.9884 0.1410
vn 0.1966 0.9764 -0.0895
vn 0.1752 0.9813 -0.0798
vn 0.0511 0.9889 -0.1396
vn -0.0043 0.9952 -0.0980
vn 0.0480 0.9974 0.0530
vn 0.1324 0.9429 0.3056
vn 0.1031 0.9768 0.1879
vn 0.0400 0.9899 0.1363
vn 0.0837 0.9515 0.2960
vn 0.0738 0.9288 0.3633
vn 0.0382 0.9147 0.4023
vn 0.0076 0.8914 0.4532
vn -0.0464 0.8816 0.4697
vn -0.1753 0.9112 0.3727
vn -0.3624 0.9137 0.1842
vn -0.4822 0.8737 0.0646
vn -0.4608 0.8786 0.1257
vn -0.5037 0.8609 0.0718
vn -0.4447 0.8885 0.1133
vn -0.3489 0.9176 0.1902
vn -0.0915 0.9219 0.3765
vn 0.4130 0.6798 0.6060
vn 0.6371 0.4441 0.6300
vn 0.8112 0.0902 0.5778
vn 0.8133 0.1744 0.5551
vn 0.6726 0.5539 0.4907
vn 0.4003 0.8286 0.3913
vn 0.2436 0.9118 0.3304
vn 0.1807 0.9367 0.2998
vn -0.0415 0.9745 0.2203
vn 0.0055 0.9663 0.2573
vn 0.1189 0.9414 0.3157
vn 0.1338 0.9354 0.3273
vn 0.2749 0.8879 0.3688
vn 0.2874 0.8802 0.3777
vn 0.2283 0.9034 0.3631
vn -0.0914 0.9497 0.2997
vn -0.3566 0.9137 0.1949
vn -0.3382 0.9340 0.1155
vn -0.3356 0.9396 0.0674
vn -0.3141 0.9489 0.0318
vn -0.4793 0.8774 0.0211
vn -0.4824 0.8748 0.0448
vn -0.3909 0.9193 0.0457
vn -0.2227 0.9747 0.0201
vn -0.1946 0.9802 0.0362
vn -0.1158 0.9916 0.0569
vn -0.0737 0.9929 0.0931
vn 0.0714 0.9958 0.0576
vn 0.1240 0.9923 0.0019
vn -0.1233 0.9924 -0.0021
vn -0.9531 0.2692 0.1382
vn -0.3839 -0.9198 0.0811
vn 0.0434 -0.9986 -0.0286
vn -0.0227 -0.9970 -0.0735
vn 0.0042 -0.9987 -0.0502
vn 0.0860 -0.9963 0.0012
vn -0.0282 -0.9996 0.0034
vn -0.0513 -0.9983 0.0267
vn 0.1031 -0.9914 0.0800
vn 0.2678 -0.9558 0.1214
vn 0.6088 -0.7702 0.1900
vn 0.6922 -0.7043 0.1575
vn 0.5735 -0.8163 0.0696
vn 0.1796 -0.9603 -0.2135
vn -0.3485 -0.9332 -0.0880
vn -0.8737 -0.3246 0.3624
vn -0.5836 -0.8120 0.0032
vn -0.7016 -0.1072 0.7045
vn 0.5205 0.7322 0.4392
vn 0.6365 -0.1854 -0.7487
vn -0.6053 -0.3574 -0.7113
vn -0.2519 -0.8783 -0.4063
vn 0.4985 -0.7940 0.3480
vn 0.2980 -0.7625 0.5743
vn -0.1790 -0.9799 0.0886
vn -0.2443 -0.9203 -0.3054
vn -0.0361 -0.9140 -0.4041
vn -0.0026 -0.9505 -0.3106
vn 0.1450 -0.9717 0.1866
vn 0.3901 -0.2623 0.8826
vn 0.4041 0.0148 0.9146
vn 0.3508 0.4901 0.7980
vn 0.4810 0.4711 0.7393
vn 0.6592 -0.6982 0.2791
vn -0.0603 -0.8644 -0.4992
vn -0.4128 -0.5882 -0.6954
vn -0.4798 -0.6894 -0.5427
vn -0.2859 -0.9535 -0.0951
vn -0.1721 -0.9841 -0.0436
vn -0.0456 -0.9987 -0.0232
vn -0.0135 -0.9999 -0.0006
vn -0.0244 -0.9985 0.0483
vn -0.0273 -0.9900 0.1387
vn -0.1171 -0.9924 0.0387
vn -0.1152 -0.9933 0.0128
vn -0.0776 -0.9915 0.1044
vn -0.0670 -0.9830 0.1709
vn -0.0733 -0.9610 0.2668
vn -0.0558 -0.9454 0.3211
vn 0.0428 0.9991 0.0069
vn -0.0573 0.9978 -0.0320
vn -0.1121 0.9788 -0.1714
vn -0.0697 0.9965 -0.0472
vn -0.0221 0.9928 0.1173
vn -0.0385 0.9583 0.2832
vn -0.1616 0.9479 0.2745
vn -0.1976 0.9378 0.2856
vn -0.1377 0.9127 0.3847
vn -0.1428 0.9037 0.4036
vn -0.1884 0.9065 0.3778
vn -0.1974 0.9044 0.3783
vn -0.1880 0.9044 0.3830
vn -0.2129 0.9134 0.3469
vn -0.4106 0.9009 0.1408
vn -0.4835 0.8749 0.0286
vn -0.3663 0.9237 0.1123
vn -0.2483 0.9529 0.1743
vn -0.1127 0.9624 0.2470
vn -0.0712 0.9664 0.2471
vn 0.2124 0.8765 0.4321
vn 0.5275 0.5076 0.6812
vn 0.5119 -0.0097 0.8590
vn 0.5515 -0.1223 0.8252
vn 0.6198 -0.2830 0.7319
vn 0.7385 -0.0866 0.6687
vn 0.6137 0.0894 0.7845
vn 0.4949 0.7504 0.4382
vn 0.2994 0.9012 0.3134
vn 0.0135 0.9757 0.2186
vn -0.1480 0.9796 0.1356
vn -0.0227 0.9809 0.1934
vn 0.0255 0.9740 0.2250
vn 0.1326 0.9525 0.2743
vn 0.1847 0.9315 0.3134
vn 0.0766 0.9490 0.3059
vn -0.0547 0.9484 0.3122
vn -0.1822 0.9354 0.3031
vn -0.1851 0.9338 0.3062
vn -0.2686 0.9213 0.2812
vn -0.4121 0.8772 0.2462
vn -0.6753 0.7182 0.1682
vn -0.6655 0.7201 0.1965
vn -0.3235 0.9171 0.2330
vn -0.3028 0.9332 0.1933
vn -0.3170 0.9284 0.1937
vn -0.1947 0.9663 0.1683
vn -0.1774 0.9765 0.1221
vn -0.0168 0.9904 0.1369
vn 0.2786 0.9582 0.0647
vn 0.0691 0.9976 0.0078
vn -0.7845 0.6147 0.0816
vn -0.7029 -0.7057 0.0890
vn -0.0297 -0.9995 0.0067
vn -0.0199 -0.9998 0.0028
vn 0.0633 -0.9980 0.0024
vn 0.1712 -0.9852 0.0097
vn -0.0424 -0.9988 0.0227
vn -0.0349 -0.9994 -0.0008
vn 0.1499 -0.9886 -0.0139
vn 0.2957 -0.9552 0.0115
vn 0.4984 -0.8648 -0.0604
vn 0.5061 -0.8144 -0.2838
vn 0.6500 -0.7115 -0.2671
vn 0.6600 -0.7510 0.0207
vn 0.0292 -0.9780 0.2066
vn -0.9895 -0.1148 -0.0874
vn -0.9627 -0.1196 -0.2428
vn -0.9586 -0.0717 -0.2757
vn -0.1147 0.9933 0.0106
vn -0.2408 0.9634 -0.1178
vn -0.7078 -0.4381 -0.5542
vn -0.2357 -0.8947 -0.3795
vn 0.5990 -0.6479 0.4705
vn 0.6717 -0.5112 0.5363
vn 0.1217 -0.9545 -0.2722
vn -0.2554 -0.7993 -0.5439
vn -0.1035 -0.9629 -0.2490
vn 0.0844 -0.9691 0.2318
vn 0.3257 -0.1411 0.9349
vn 0.0156 0.6539 0.7564
vn -0.0571 -0.2086 0.9763
vn 0.2373 -0.7882 0.5679
vn 0.5259 -0.1876 0.8296
vn 0.7218 -0.3946 0.5686
vn 0.2642 -0.9270 -0.2661
vn -0.2716 -0.7550 -0.5969
vn -0.1642 -0.9346 -0.3155
vn -0.1072 -0.9609 -0.2551
vn -0.1547 -0.9571 -0.2448
vn 0.0260 -0.9997 0.0046
vn -0.0135 -0.9995 0.0297
vn 0.0539 -0.9936 0.0988
vn 0.0784 -0.9968 0.0187
vn -0.0481 -0.9969 -0.0623
vn 0.0116 -0.9998 0.0183
vn 0.0619 -0.9955 0.0718
vn 0.1311 -0.9876 0.0863
vn 0.2260 -0.9691 0.0992
vn 0.3707 -0.9279 0.0403
vn -0.1058 0.9576 0.2680
vn -0.0963 0.9774 0.1882
vn -0.1176 0.9930 -0.0096
vn -0.1194 0.9912 -0.0577
vn -0.1579 0.9875 0.0040
vn -0.1428 0.9837 0.1089
vn -0.1411 0.9840 0.1090
vn -0.1241 0.9869 0.1026
vn -0.0753 0.9871 0.1414
vn -0.0696 0.9854 0.1557
vn -0.0864 0.9850 0.1492
vn -0.0794 0.9844 0.1571
vn -0.0606 0.9829 0.1737
vn -0.0588 0.9814 0.1830
vn -0.1518 0.9830 0.1036
vn -0.2033 0.9788 0.0251
vn -0.1088 0.9919 0.0657
vn 0.0139 0.9899 0.1413
vn 0.1235 0.9677 0.2198
vn 0.2118 0.9410 0.2641
vn 0.1875 0.9212 0.3409
vn 0.4113 0.2566 0.8746
vn 0.8377 -0.4369 0.3276
vn 0.0653 0.6255 0.7775
vn 0.0671 0.3009 0.9513
vn 0.2814 -0.0326 0.9590
vn 0.7719 -0.4321 0.4663
vn 0.6474 -0.3743 0.6640
vn 0.3564 0.5374 0.7643
vn 0.1451 0.7220 0.6765
vn -0.0212 0.9376 0.3471
vn 0.3023 0.9469 0.1096
vn -0.1414 0.9822 0.1238
vn -0.2450 0.9619 0.1212
vn -0.1868 0.9606 0.2057
vn -0.3234 0.9268 0.1910
vn -0.3581 0.9103 0.2074
vn -0.3364 0.9073 0.2524
vn -0.3633 0.8890 0.2787
vn -0.4763 0.8370 0.2693
vn -0.5971 0.7658 0.2389
vn -0.6608 0.7239 0.1985
vn -0.5306 0.8169 0.2261
vn -0.2592 0.9157 0.3070
vn -0.2433 0.9262 0.2880
vn -0.1869 0.9581 0.2172
vn -0.0652 0.9875 0.1433
vn -0.1241 0.9919 0.0274
vn -0.4633 0.8855 0.0350
vn 0.1775 0.9810 0.0786
vn 0.1268 0.9918 0.0171
vn -0.7721 0.6334 0.0518
vn -0.8036 -0.5925 0.0555
vn -0.0551 -0.9984 -0.0093
vn 0.0125 -0.9998 -0.0147
vn -0.0036 -0.9995 -0.0312
vn 0.1803 -0.9795 -0.0894
vn 0.0939 -0.9944 -0.0484
vn -0.1220 -0.9921 0.0293
vn 0.0311 -0.9989 -0.0360
vn 0.2906 -0.9505 -0.1098
vn 0.2407 -0.9579 -0.1568
vn 0.5031 -0.8535 -0.1359
vn 0.9447 -0.2102 0.2518
vn 0.8351 -0.3746 0.4029
vn 0.0858 -0.9914 -0.0987
vn -0.8863 -0.2700 -0.3762
vn -0.8834 -0.3417 -0.3206
vn -0.7674 -0.3813 -0.5156
vn -0.5090 0.8385 -0.1946
vn -0.1679 0.9853 -0.0316
vn -0.4469 0.7889 -0.4217
vn -0.4215 0.1004 -0.9013
vn 0.0263 -0.9143 -0.4041
vn 0.3388 -0.8872 0.3131
vn 0.1542 -0.9833 -0.0963
vn -0.1550 -0.9416 -0.2988
vn 0.0745 -0.9694 0.2338
vn 0.4479 -0.1425 0.8826
vn 0.2308 0.8617 0.4518
vn 0.1238 0.8308 0.5427
vn 0.1651 -0.6743 0.7197
vn 0.1774 -0.9699 0.1670
vn 0.2857 -0.9458 0.1543
vn 0.5761 -0.7758 0.2575
vn 0.4363 -0.8998 -0.0045
vn 0.0267 -0.8861 -0.4626
vn 0.0238 -0.9446 -0.3274
vn 0.0413 -0.9688 -0.2445
vn -0.0142 -0.9868 -0.1615
vn 0.1141 -0.9852 0.1278
vn -0.0095 -0.9999 0.0115
vn -0.0002 -0.9956 -0.0940
vn 0.1529 -0.9881 -0.0154
vn 0.0748 -0.9942 -0.0773
vn 0.0836 -0.9927 -0.0870
vn 0.1790 -0.9821 -0.0584
vn 0.2222 -0.9716 -0.0814
vn 0.2820 -0.9543 -0.0993
vn 0.2701 -0.9591 -0.0845
vn -0.0321 0.9392 0.3417
vn -0.0478 0.9566 0.2874
vn -0.0866 0.9900 0.1115
vn -0.1795 0.9812 -0.0710
vn -0.2145 0.9740 -0.0727
vn -0.1124 0.9935 -0.0181
vn -0.0237 0.9997 0.0025
vn -0.0205 0.9998 -0.0000
vn -0.0097 1.0000 0.0008
vn -0.0031 1.0000 0.0027
vn 0.0017 1.0000 0.0068
vn 0.0138 0.9997 0.0185
vn 0.0073 0.9997 0.0242
vn 0.0065 0.9992 0.0384
vn 0.0145 0.9986 0.0505
vn -0.0186 0.9995 0.0243
vn 0.0055 0.9992 0.0408
vn 0.0406 0.9964 0.0750
vn 0.1088 0.9845 0.1377
vn 0.2942 0.9240 0.2445
vn 0.2277 0.9258 0.3018
vn 0.9382 0.2861 -0.1945
vn 0.7884 0.1964 -0.5829
vn 0.6293 0.6586 -0.4126
vn -0.1978 0.8645 0.4621
vn 0.5230 0.6042 0.6012
vn 0.9445 -0.0937 0.3147
vn 0.5092 -0.7621 0.3998
vn 0.2431 -0.0620 0.9680
vn 0.0697 0.2591 0.9633
vn 0.3682 -0.0796 0.9263
vn 0.8671 0.2273 0.4432
vn -0.3300 0.9110 0.2473
vn -0.5701 0.8084 0.1467
vn -0.4912 0.8402 0.2296
vn -0.5456 0.8082 0.2216
vn -0.5295 0.8096 0.2534
vn -0.5130 0.8092 0.2866
vn -0.5608 0.7791 0.2800
vn -0.6429 0.7275 0.2394
vn -0.6853 0.7011 0.1968
vn -0.5723 0.7906 0.2178
vn -0.3795 0.8937 0.2393
vn -0.2161 0.9450 0.2453
vn -0.1492 0.9579 0.2451
vn -0.0792 0.9800 0.1825
vn 0.1304 0.9901 0.0521
vn -0.0478 0.9978 -0.0465
vn -0.8004 0.5917 -0.0959
vn -0.4166 0.9068 -0.0642
vn 0.1359 0.9907 -0.0083
vn -0.8410 0.5377 0.0609
vn -0.7691 -0.6386 0.0267
vn -0.0483 -0.9977 -0.0484
vn -0.0033 -0.9993 -0.0385
vn -0.0399 -0.9991 -0.0124
vn 0.1558 -0.9820 -0.1066
vn 0.1932 -0.9760 -0.1005
vn -0.1999 -0.9729 0.1166
vn -0.0871 -0.9955 0.0382
vn 0.2622 -0.9525 -0.1546
vn 0.1711 -0.9744 -0.1461
vn 0.4459 -0.8901 0.0944
vn 0.8124 0.2491 0.5272
vn 0.7872 -0.4742 0.3943
vn 0.0897 -0.9525 -0.2911
vn -0.8527 -0.3076 -0.4222
vn -0.6957 -0.6877 -0.2076
vn -0.7912 -0.5477 -0.2721
vn -0.6103 0.7890 -0.0704
vn -0.0591 0.9983 -0.0003
vn 0.0177 0.9680 -0.2502
vn -0.1478 0.7939 -0.5898
vn 0.0411 -0.1401 -0.9893
vn 0.0803 -0.9903 0.1138
vn 0.1353 -0.9898 0.0453
vn -0.0251 -0.9878 -0.1535
vn 0.1078 -0.9443 0.3108
vn 0.3486 0.6356 0.6889
vn 0.1828 0.9660 0.1829
vn 0.4237 0.6266 0.6541
vn 0.3074 -0.8599 0.4074
vn 0.2118 -0.9743 0.0768
vn 0.1264 -0.9467 -0.2962
vn 0.3322 -0.9432 -0.0006
vn 0.4173 -0.9084 0.0273
vn 0.1929 -0.9121 -0.3617
vn 0.0013 -0.9604 -0.2785
vn -0.0224 -0.9949 -0.0980
vn 0.0246 -0.9997 0.0093
vn 0.1507 -0.9735 0.1722
vn -0.0254 -0.9996 -0.0126
vn -0.1463 -0.9736 -0.1754
vn 0.0746 -0.9949 0.0681
vn 0.0212 -0.9997 -0.0100
vn -0.0319 -0.9956 -0.0881
vn 0.0175 -0.9996 -0.0220
vn 0.0064 -0.9998 -0.0186
vn -0.0004 -0.9999 -0.0108
vn -0.0013 -1.0000 -0.0064
s 1
f 1//1 2//2 102//102 101//101
f 2//2 3//3 103//103 102//102
f 3//3 4//4 104//104 103//103
f 4//4 5//5 105//105 104//104
f 5//5 6//6 106//106 105//105
f 6//6 7//7 107//107 106//106
f 7//7 8//8 108//108 107//107
f 8//8 9//9 109//109 108//108
f 9//9 10//10 110//110 109//109
f 10//10 11//11 111//111 110//110
f 11//11 12//12 112//112 111//111
f 12//12 13//13 113//113 112//112
f 13//13 14//14 114//114 113//113
f 14//14 15//15 115//115 114//114
f 15//15 16//16 116//116 115//115
f 16//16 17//17 117//117 116//116
f 17//17 18//18 118//118 117//117
f 18//18 19//19 119//119 118//118
f 19//19 20//20 120//120 119//119
f 20//20 21//21 121//121 120//120
f 21//21 22//22 122//122 121//121
f 22//22 23//23 123//123 122//122
f 23//23 24//24 124//124 123//123
f 24//24 25//25 125//125 124//124
f 25//25 26//26 126//126 125//125
f 26//26 27//27 127//127 126//126
f 27//27 28//28 128//128 127//127
f 28//28 29//29 129//129 128//128
f 29//29 30//30 130//130 129//129
f 30//30 31//31 131//131 130//130
f 31//31 32//32 132//132 131//131
f 32//32 33//33 133//133 132//132
f 33//33 34//34 134//134 133//133
f 34//34 35//35 135//135 134//134
f 35//35 36//36 136//136 135//135
f 36//36 37//37 137//137 136//136
f 37//37 38//38 138//138 137//137
f 38//38 39//39 139//139 138//138
f 39//39 40//40 140//140 139//139
f 40//40 41//41 141//141 140//140
f 41//41 42//42 142//142 141//141
f 42//42 43//43 143//143 142//142
f 43//43 44//44 144//144 143//143
f 44//44 45//45 145//145 144//144
f 45//45 46//46 146//146 145//145
f 46//46 47//47 147//147 146//146
f 47//47 48//48 148//148 147//147
f 48//48 49//49 149//149 148//148
f 49//49 50//50 150//150 149//149
f 50//50 51//51 151//151 150//150
f 51//51 52//52 152//152 151//151
f 52//52 53//53 153//153 152//152
f 53//53 54//54 154//154 153//153
f 54//54 55//55 155//155 154//154
f 55//55 56//56 156//156 155//155
f 56//56 57//57 157//157 156//156
f 57//57 58//58 158//158 157//157
f 58//58 59//59 159//159 158//158
f 59//59 60//60 160//160 159//159
f 60//60 61//61 161//161 160//160
f 61//61 62//62 162//162 161//161
f 62//62 63//63 163//163 162//162
f 63//63 64//64 164//164 163//163
f 64//64 65//65 165//165 164//164
f 65//65 66//66 166//166 165//165
f 66//66 67//67 167//167 166//166
f 67//67 68//68 168//168 167//167
f 68//68 69//69 169//169 168//168
f 69//69 70//70 170//170 169//169
f 70//70 71//71 171//171 170//170
f 71//71 72//72 172//172 171//171
f 72//72 73//73 173//173 172//172
f 73//73 74//74 174//174 173//173
f 74//74 75//75 175//175 174//174
f 75//75 76//76 176//176 175//175
f 76//76 77//77 177//177 176//176
f 77//77 78//78 178//178 177//177
f 78//78 79//79 179//179 178//178
f 79//79 80//80 180//180 179//179
f 80//80 81//81 181//181 180//180
f 81//81 82//82 182//182 181//181
f 82//82 83//83 183//183 182//182
f 83//83 84//84 184//184 183//183
f 84//84 85//85 185//185 184//184
f 85//85 86//86 186//186 185//185
f 86//86 87//87 187//187 186//186
f 87//87 88//88 188//188 187//187
f 88//88 89//89 189//189 188//188
f 89//89 90//90 190//190 189//189
f 90//90 91//91 191//191 190//190
f 91//91 92//92 192//192 191//191
f 92//92 93//93 193//193 192//192
f 93//93 94//94 194//194 193//193
f 94//94 95//95 195//195 194//194
f 95//95 96//96 196//196 195//195
f 96//96 97//97 197//197 196//196
f 97//97 98//98 198//198 197//197
f 98//98 99//99 199//199 198//198
f 99//99 100//100 200//200 199//199
f 101//101 102//102 202//202 201//201
f 102//102 103//103 203//203 202//202
f 103//103 104//104 204//204 203//203
f 104//104 105//105 205//205 204//204
f 105//105 106//106 206//206 205//205
f 106//106 107//107 207//207 206//206
f 107//107 108//108 208//208 207//207
f 108//108 109//109 209//209 208//208
f 109//109 110//110 210//210 209//209
f 110//110 111//111 211//211 210//210
f 111//111 112//112 212//212 211//211
f 112//112 113//113 213//213 212//212
f 113//113 114//114 214//214 213//213
f 114//114 115//115 215//215 214//214
f 115//115 116//116 216//216 215//215
f 116//116 117//117 217//217 216//216
f 117//117 118//118 218//218 217//217
f 118//118 119//119 219//219 218//218
f 119//119 120//120 220//220 219//219
f 120//120 121//121 221//221 220//220
f 121//121 122//122 222//222 221//221
f 122//122 123//123 223//223 222//222
f 123//123 124//124 224//224 223//223
f 124//124 125//125 225//225 224//224
f 125//125 126//126 226//226 225//225
f 126//126 127//127 227//227 226//226
f 127//127 128//128 228//228 227//227
f 128//128 129//129 229//229 228//228
f 129//129 130//130 230//230 229//229
f 130//130 131//131 231//231 230//230
f 131//131 132//132 232//232 231//231
f 132//132 133//133 233//233 232//232
f 133//133 134//134 234//234 233//233
f 134//134 135//135 235//235 234//234
f 135//135 136//136 236//236 235//235
f 136//136 137//137 237//237 236//236
f 137//137 138//138 238//238 237//237
f 138//138 139//139 239//239 238//238
f 139//139 140//140 240//240 239//239
f 140//140 141//141 241//241 240//240
f 141//141 142//142 242//242 241//241
f 142//142 143//143 243//243 242//242
f 143//143 144//144 244//244 243//243
f 144//144 145//145 245//245 244//244
f 145//145 146//146 246//246 245//245
f 146//146 147//147 247//247 246//246
f 147//147 148//148 248//248 247//247
f 148//148 149//149 249//249 248//248
f 149//149 150//150 250//250 249//249
f 150//150 151//151 251//251 250//250
f 151//151 152//152 252//252 251//251
f 152//152 153//153 253//253 252//252
f 153//153 154//154 254//254 253//253
f 154//154 155//155 255//255 254//254
f 155//155 156//156 256//256 255//255
f 156//156 157//157 257//257 256//256
f 157//157 158//158 258//258 257//257
f 158//158 159//159 259//259 258//258
f 159//159 160//160 260//260 259//259
f 160//160 161//161 261//261 260//260
f 161//161 162//162 262//262 261//261
f 162//162 163//163 263//263 262//262
f 163//163 164//164 264//264 263//263
f 164//164 165//165 265//265 264//264
f 165//165 166//166 266//266 265//265
f 166//166 167//167 267//267 266//266
f 167//167 168//168 268//268 267//267
f 168//168 169//169 269//269 268//268
f 169//169 170//170 270//270 269//269
f 170//170 171//171 271//271 270//270
f 171//171 172//172 272//272 271//271
f 172//172 173//173 273//273 272//272
f 173//173 174//174 274//274 273//273
f 174//174 175//175 275//275 274//274
f 175//175 176//176 276//276 275//275
f 176//176 177//177 277//277 276//276
f 177//177 178//178 278//278 277//277
f 178//178 179//179 279//279 278//278
f 179//179 180//180 280//280 279//279
f 180//180 181//181 281//281 280//280
f 181//181 182//182 282//282 281//281
f 182//182 183//183 283//283 282//282
f 183//183 184//184 284//284 283//283
f 184//184 185//185 285//285 284//284
f 185//185 186//186 286//286 285//285
f 186//186 187//187 287//287 286//286
f 187//187 188//188 288//288 287//287
f 188//188 189//189 289//289 288//288
f 189//189 190//190 290//290 289//289
f 190//190 191//191 291//291 290//290
f 191//191 192//192 292//292 291//291
f 192//192 193//193 293//293 292//292
f 193//193 194//194 294//294 293//293
f 194//194 195//195 295//295 294//294
f 195//195 196//196 296//296 295//295
f 196//196 197//197 297//297 296//296
f 197//197 198//198 298//298 297//297
f 198//198 199//199 299//299 298//298
f 199//199 200//200 300//300 299//299
f 201//201 202//202 302//302 301//301
f 202//202 203//203 303//303 302//302
f 203//203 204//204 304//304 303//303
f 204//204 205//205 305//305 304//304
f 205//205 206//206 306//306 305//305
f 206//206 207//207 307//307 306//306
f 207//207 208//208 308//308 307//307
f 208//208 209//209 309//309 308//308
f 209//209 210//210 310//310 309//309
f 210//210 211//211 311//311 310//310
f 211//211 212//212 312//312 311//311
f 212//212 213//213 313//313 312//312
f 213//213 214//214 314//314 313//313
f 214//214 215//215 315//315 314//314
f 215//215 216//216 316//316 315//315
f 216//216 217//217 317//317 316//316
f 217//217 218//218 318//318 317//317
f 218//218 219//219 319//319 318//318
f 219//219 220//220 320//320 319//319
f 220//220 221//221 321//321 320//320
f 221//221 222//222 322//322 321//321
f 222//222 223//223 323//323 322//322
f 223//223 224//224 324//324 323//323
f 224//224 225//225 325//325 324//324
f 225//225 226//226 326//326 325//325
f 226//226 227//227 327//327 326//326
f 227//227 228//228 328//328 327//327
f 228//228 229//229 329//329 328//328
f 229//229 230//230 330//330 329//329
f 230//230 231//231 331//331 330//330
f 231//231 232//232 332//332 331//331
f 232//232 233//233 333//333 332//332
f 233//233 234//234 334//334 333//333
f 234//234 235//235 335//335 334//334
f 235//235 236//236 336//336 335//335
f 236//236 237//237 337//337 336//336
f 237//237 238//238 338//338 337//337
f 238//238 239//239 339//339 338//338
f 239//239 240//240 340//340 339//339
f 240//240 241//241 341//341 340//340
f 241//241 242//242 342//342 341//341
f 242//242 243//243 343//343 342//342
f 243//243 244//244 344//344 343//343
f 244//244 245//245 345//345 344//344
f 245//245 246//246 346//346 345//345
f 246//246 247//247 347//347 346//346
f 247//247 248//248 348//348 347//347
f 248//248 249//249 349//349 348//348
f 249//249 250//250 350//350 349//349
f 250//250 251//251 351//351 350//350
f 251//251 252//252 352//352 351//351
f 252//252 253//253 353//353 352//352
f 253//253 254//254 354//354 353//353
f 254//254 255//255 355//355 354//354
f 255//255 256//256 356//356 355//355
f 256//256 257//257 357//357 356//356
f 257//257 258//258 358//358 357//357
f 258//258 259//259 359//359 358//358
f 259//259 260//260 360//360 359//359
f 260//260 261//261 361//361 360//360
f 261//261 262//262 362//362 361//361
f 262//262 263//263 363//363 362//362
f 263//263 264//264 364//364 363//363
f 264//264 265//265 365//365 364//364
f 265//265 266//266 366//366 365//365
f 266//266 267//267 367//367 366//366
f 267//267 268//268 368//368 367//367
f 268//268 269//269 369//369 368//368
f 269//269 270//270 370//370 369//369
f 270//270 271//271 371//371 370//370
f 271//271 272//272 372//372 371//371
f 272//272 273//273 373//373 372//372
f 273//273 274//274 374//374 373//373
f 274//274 275//275 375//375 374//374
f 275//275 276//276 376//376 375//375
f 276//276 277//277 377//377 376//376
f 277//277 278//278 378//378 377//377
f 278//278 279//279 379//379 378//378
f 279//279 280//280 380//380 379//379
f 280//280 281//281 381//381 380//380
f 281//281 282//282 382//382 381//381
f 282//282 283//283 383//383 382//382
f 283//283 284//284 384//384 383//383
f 284//284 285//285 385//385 384//384
f 285//285 286//286 386//386 385//385
f 286//286 287//287 387//387 386//386
f 287//287 288//288 388//388 387//387
f 288//288 289//289 389//389 388//388
f 289//289 290//290 390//390 389//389
f 290//290 291//291 391//391 390//390
f 291//291 292//292 392//392 391//391
f 292//292 293//293 393//393 392//392
f 293//293 294//294 394//394 393//393
f 294//294 295//295 395//395 394//394
f 295//295 296//296 396//396 395//395
f 296//296 297//297 397//397 396//396
f 297//297 298//298 398//398 397//397
f 298//298 299//299 399//399 398//398
f 299//299 300//300 400//400 399//399
f 301//301 302//302 402//402 401//401
f 302//302 303//303 403//403 402//402
f 303//303 304//304 404//404 403//403
f 304//304 305//305 405//405 404//404
f 305//305 306//306 406//406 405//405
f 306//306 307//307 407//407 406//406
f 307//307 308//308 408//408 407//407
f 308//308 309//309 409//409 408//408
f 309//309 310//310 410//410 409//409
f 310//310 311//311 411//411 410//410
f 311//311 312//312 412//412 411//411
f 312//312 313//313 413//413 412//412
f 313//313 314//314 414//414 413//413
f 314//314 315//315 415//415 414//414
f 315//315 316//316 416//416 415//415
f 316//316 317//317 417//417 416//416
f 317//317 318//318 418//418 417//417
f 318//318 319//319 419//419 418//418
f 319//319 320//320 420//420 419//419
f 320//320 321//321 421//421 420//420
f 321//321 322//322 422//422 421//421
f 322//322 323//323 423//423 422//422
f 323//323 324//324 424//424 423//423
f 324//324 325//325 425//425 424//424
f 325//325 326//326 426//426 425//425
f 326//326 327//327 427//427 426//426
f 327//327 328//328 428//428 427//427
f 328//328 329//329 429//429 428//428
f 329//329 330//330 430//430 429//429
f 330//330 331//331 431//431 430//430
f 331//331 332//332 432//432 431//431
f 332//332 333//333 433//433 432//432
f 333//333 334//334 434//434 433//433
f 334//334 335//335 435//435 434//434
f 335//335 336//336 436//436 435//435
f 336//336 337//337 437//437 436//436
f 337//337 338//338 438//438 437//437
f 338//338 339//339 439//439 438//438
f 339//339 340//340 440//440 439//439
f 340//340 341//341 441//441 440//440
f 341//341 342//342 442//442 441//441
f 342//342 343//343 443//443 442//442
f 343//343 344//344 444//444 443//443
f 344//344 345//345 445//445 444//444
f 345//345 346//346 446//446 445//445
f 346//346 347//347 447//447 446//446
f 347//347 348//348 448//448 447//447
f 348//348 349//349 449//449 448//448
f 349//349 350//350 450//450 449//449
f 350//350 351//351 451//451 450//450
f 351//351 352//352 452//452 451//451
f 352//352 353//353 453//453 452//452
f 353//353 354//354 454//454 453//453
f 354//354 355//355 455//455 454//454
f 355//355 356//356 456//456 455//455
f 356//356 357//357 457//457 456//456
f 357//357 358//358 458//458 457//457
f 358//358 359//359 459//459 458//458
f 359//359 360//360 460//460 459//459
f 360//360 361//361 461//461 460//460
f 361//361 362//362 462//462 461//461
f 362//362 363//363 463//463 462//462
f 363//363 364//364 464//464 463//463
f 364//364 365//365 465//465 464//464
f 365//365 366//366 466//466 465//465
f 366//366 367//367 467//467 466//466
f 367//367 368//368 468//468 467//467
f 368//368 369//369 469//469 468//468
f 369//369 370//370 470//470 469//469
f 370//370 371//371 471//471 470//470
f 371//371 372//372 472//472 471//471
f 372//372 373//373 473//473 472//472
f 373//373 374//374 474//474 473//473
f 374//374 375//375 475//475 474//474
f 375//375 376//376 476//476 475//475
f 376//376 377//377 477//477 476//476
f 377//377 378//378 478//478 477//477
f 378//378 379//379 479//479 478//478
f 379//379 380//380 480//480 479//479
f 380//380 381//381 481//481 480//480
f 381//381 382//382 482//482 481//481
f 382//382 383//383 483//483 482//482
f 383//383 384//384 484//484 483//483
f 384//384 385//385 485//485 484//484
f 385//385 386//386 486//486 485//485
f 386//386 387//387 487//487 486//486
f 387//387 388//388 488//488 487//487
f 388//388 389//389 489//489 488//488
f 389//389 390//390 490//490 489//489
f 390//390 391//391 491//491 490//490
f 391//391 392//392 492//492 491//491
f 392//392 393//393 493//493 492//492
f 393//393 394//394 494//494 493//493
f 394//394 395//395 495//495 494//494
f 395//395 396//396 496//496 495//495
f 396//396 397//397 497//497 496//496
f 397//397 398//398 498//498 497//497
f 398//398 399//399 499//499 498//498
f 399//399 400//400 500//500 499//499
f 401//401 402//402 502//502 501//501
f 402//402 403//403 503//503 502//502
f 403//403 404//404 504//504 503//503
f 404//404 405//405 505//505 504//504
f 405//405 406//406 506//506 505//505
f 406//406 407//407 507//507 506//506
f 407//407 408//408 508//508 507//507
f 408//408 409//409 509//509 508//508
f 409//409 410//410 510//510 509//509
f 410//410 411//411 511//511 510//510
f 411//411 412//412 512//512 511//511
f 412//412 413//413 513//513 512//512
f 413//413 414//414 514//514 513//513
f 414//414 415//415 515//515 514//514
f 415//415 416//416 516//516 515//515
f 416//416 417//417 517//517 516//516
f 417//417 418//418 518//518 517//517
f 418//418 419//419 519//519 518//518
f 419//419 420//420 520//520 519//519
f 420//420 421//421 521//521 520//520
f 421//421 422//422 522//522 521//521
f 422//422 423//423 523//523 522//522
f 423//423 424//424 524//524 523//523
f 424//424 425//425 525//525 524//524
f 425//425 426//426 526//526 525//525
f 426//426 427//427 527//527 526//526
f 427//427 428//428 528//528 527//527
f 428//428 429//429 529//529 528//528
f 429//429 430//430 530//530 529//529
f 430//430 431//431 531//531 530//530
f 431//431 432//432 532//532 531//531
f 432//432 433//433 533//533 532//532
f 433//433 434//434 534//534 533//533
f 434//434 435//435 535//535 534//534
f 435//435 436//436 536//536 535//535
f 436//436 437//437 537//537 536//536
f 437//437 438//438 538//538 537//537
f 438//438 439//439 539//539 538//538
f 439//439 440//440 540//540 539//539
f 440//440 441//441 541//541 540//540
f 441//441 442//442 542//542 541//541
f 442//442 443//443 543//543 542//542
f 443//443 444//444 544//544 543//543
f 444//444 445//445 545//545 544//544
f 445//445 446//446 546//546 545//545
f 446//446 447//447 547//547 546//546
f 447//447 448//448 548//548 547//547
f 448//448 449//449 549//549 548//548
f 449//449 450//450 550//550 549//549
f 450//450 451//451 551//551 550//550
f 451//451 452//452 552//552 551//551
f 452//452 453//453 553//553 552//552
f 453//453 454//454 554//554 553//553
f 454//454 455//455 555//555 554//554
f 455//455 456//456 556//556 555//555
f 456//456 457//457 557//557 556//556
f 457//457 458//458 558//558 557//557
f 458//458 459//459 559//559 558//558
f 459//459 460//460 560//560 559//559
f 460//460 461//461 561//561 560//560
f 461//461 462//462 562//562 561//561
f 462//462 463//463 563//563 562//562
f 463//463 464//464 564//564 563//563
f 464//464 465//465 565//565 564//564
f 465//465 466//466 566//566 565//565
f 466//466 467//467 567//567 566//566
f 467//467 468//468 568//568 567//567
f 468//468 469//469 569//569 568//568
f 469//469 470//470 570//570 569//569
f 470//470 471//471 571//571 570//570
f 471//471 472//472 572//572 571//571
f 472//472 473//473 573//573 572//572
f 473//473 474//474 574//574 573//573
f 474//474 475//475 575//575 574//574
f 475//475 476//476 576//576 575//575
f 476//476 477//477 577//577 576//576
f 477//477 478//478 578//578 577//577
f 478//478 479//479 579//579 578//578
f 479//479 480//480 580//580 579//579
f 480//480 481//481 581//581 580//580
f 481//481 482//482 582//582 581//581
f 482//482 483//483 583//583 582//582
f 483//483 484//484 584//584 583//583
f 484//484 485//485 585//585 584//584
f 485//485 486//486 586//586 585//585
f 486//486 487//487 587//587 586//586
f 487//487 488//488 588//588 587//587
f 488//488 489//489 589//589 588//588
f 489//489 490//490 590//590 589//589
f 490//490 491//491 591//591 590//590
f 491//491 492//492 592//592 591//591
f 492//492 493//493 593//593 592//592
f 493//493 494//494 594//594 593//593
f 494//494 495//495 595//595 594//594
f 495//495 496//496 596//596 595//595
f 496//496 497//497 597//597 596//596
f 497//497 498//498 598//598 597//597
f 498//498 499//499 599//599 598//598
f 499//499 500//500 600//600 599//599
f 501//501 502//502 602//602 601//601
f 502//502 503//503 603//603 602//602
f 503//503 504//504 604//604 603//603
f 504//504 505//505 605//605 604//604
f 505//505 506//506 606//606 605//605
f 506//506 507//507 607//607 606//606
f 507//507 508//508 608//608 607//607
f 508//508 509//509 609//609 608//608
f 509//509 510//510 610//610 609//609
f 510//510 511//511 611//611 610//610
f 511//511 512//512 612//612 611//611
f 512//512 513//513 613//613 612//612
f 513//513 514//514 614//614 613//613
f 514//514 515//515 615//615 614//614
f 515//515 516//516 616//616 615//615
f 516//516 517//517 617//617 616//616
f 517//517 518//518 618//618 617//617
f 518//518 519//519 619//619 618//618
f 519//519 520//520 620//620 619//619
f 520//520 521//521 621//621 620//620
f 521//521 522//522 622//622 621//621
f 522//522 523//523 623//623 622//622
f 523//523 524//524 624//624 623//623
f 524//524 525//525 625//625 624//624
f 525//525 526//526 626//626 625//625
f 526//526 527//527 627//627 626//626
f 527//527 528//528 628//628 627//627
f 528//528 529//529 629//629 628//628
f 529//529 530//530 630//630 629//629
f 530//530 531//531 631//631 630//630
f 531//531 532//532 632//632 631//631
f 532//532 533//533 633//633 632//632
f 533//533 534//534 634//634 633//633
f 534//534 535//535 635//635 634//634
f 535//535 536//536 636//636 635//635
f 536//536 537//537 637//637 636//636
f 537//537 538//538 638//638 637//637
f 538//538 539//539 639//639 638//638
f 539//539 540//540 640//640 639//639
f 540//540 541//541 641//641 640//640
f 541//541 542//542 642//642 641//641
f 542//542 543//543 643//643 642//642
f 543//543 544//544 644//644 643//643
f 544//544 545//545 645//645 644//644
f 545//545 546//546 646//646 645//645
f 546//546 547//547 647//647 646//646
f 547//547 548//548 648//648 647//647
f 548//548 549//549 649//649 648//648
f 549//549 550//550 650//650 649//649
f 550//550 551//551 651//651 650//650
f 551//551 552//552 652//652 651//651
f 552//552 553//553 653//653 652//652
f 553//553 554//554 654//654 653//653
f 554//554 555//555 655//655 654//654
f 555//555 556//556 656//656 655//655
f 556//556 557//557 657//657 656//656
f 557//557 558//558 658//658 657//657
f 558//558 559//559 659//659 658//658
f 559//559 560//560 660//660 659//659
f 560//560 561//561 661//661 660//660
f 561//561 562//562 662//662 661//661
f 562//562 563//563 663//663 662//662
f 563//563 564//564 664//664 663//663
f 564//564 565//565 665//665 664//664
f 565//565 566//566 666//666 665//665
f 566//566 567//567 667//667 666//666
f 567//567 568//568 668//668 667//667
f 568//568 569//569 669//669 668//668
f 569//569 570//570 670//670 669//669
f 570//570 571//571 671//671 670//670
f 571//571 572//572 672//672 671//671
f 572//572 573//573 673//673 672//672
f 573//573 574//574 674//674 673//673
f 574//574 575//575 675//675 674//674
f 575//575 576//576 676//676 675//675
f 576//576 577//577 677//677 676//676
f 577//577 578//578 678//678 677//677
f 578//578 579//579 679//679 678//678
f 579//579 580//580 680//680 679//679
f 580//580 581//581 681//681 680//680
f 581//581 582//582 682//682 681//681
f 582//582 583//583 683//683 682//682
f 583//583 584//584 684//684 683//683
f 584//584 585//585 685//685 684//684
f 585//585 586//586 686//686 685//685
f 586//586 587//587 687//687 686//686
f 587//587 588//588 688//688 687//687
f 588//588 589//589 689//689 688//688
f 589//589 590//590 690//690 689//689
f 590//590 591//591 691//691 690//690
f 591//591 592//592 692//692 691//691
f 592//592 593//593 693//693 692//692
f 593//593 594//594 694//694 693//693
f 594//594 595//595 695//695 694//694
f 595//595 596//596 696//696 695//695
f 596//596 597//597 697//697 696//696
f 597//597 598//598 698//698 697//697
f 598//598 599//599 699//699 698//698
f 599//599 600//600 700//700 699//699
f 601//601 602//602 702//702 701//701
f 602//602 603//603 703//703 702//702
f 603//603 604//604 704//704 703//703
f 604//604 605//605 705//705 704//704
f 605//605 606//606 706//706 705//705
f 606//606 607//607 707//707 706//706
f 607//607 608//608 708//708 707//707
f 608//608 609//609 709//709 708//708
f 609//609 610//610 710//710 709//709
f 610//610 611//611 711//711 710//710
f 611//611 612//612 712//712 711//711
f 612//612 613//613 713//713 712//712
f 613//613 614//614 714//714 713//713
f 614//614 615//615 715//715 714//714
f 615//615 616//616 716//716 715//715
f 616//616 617//617 717//717 716//716
f 617//617 618//618 718//718 717//717
f 618//618 619//619 719//719 718//718
f 619//619 620//620 720//720 719//719
f 620//620 621//621 721//721 720//720
f 621//621 622//622 722//722 721//721
f 622//622 623//623 723//723 722//722
f 623//623 624//624 724//724 723//723
f 624//624 625//625 725//725 724//724
f 625//625 626//626 726//726 725//725
f 626//626 627//627 727//727 726//726
f 627//627 628//628 728//728 727//727
f 628//628 629//629 729//729 728//728
f 629//629 630//630 730//730 729//729
f 630//630 631//631 731//731 730//730
f 631//631 632//632 732//732 731//731
f 632//632 633//633 733//733 732//732
f 633//633 634//634 734//734 733//733
f 634//634 635//635 735//735 734//734
f 635//635 636//636 736//736 735//735
f 636//636 637//637 737//737 736//736
f 637//637 638//638 738//738 737//737
f 638//638 639//639 739//739 738//738
f 639//639 640//640 740//740 739//739
f 640//640 641//641 741//741 740//740
f 641//641 642//642 742//742 741//741
f 642//642 643//643 743//743 742//742
f 643//643 644//644 744//744 743//743
f 644//644 645//645 745//745 744//744
f 645//645 646//646 746//746 745//745
f 646//646 647//647 747//747 746//746
f 647//647 648//648 748//748 747//747
f 648//648 649//649 749//749 748//748
f 649//649 650//650 750//750 749//749
f 650//650 651//651 751//751 750//750
f 651//651 652//652 752//752 751//751
f 652//652 653//653 753//753 752//752
f 653//653 654//654 754//754 753//753
f 654//654 655//655 755//755 754//754
f 655//655 656//656 756//756 755//755
f 656//656 657//657 757//757 756//756
f 657//657 658//658 758//758 757//757
f 658//658 659//659 759//759 758//758
f 659//659 660//660 760//760 759//759
f 660//660 661//661 761//761 760//760
f 661//661 662//662 762//762 761//761
f 662//662 663//663 763//763 762//762
f 663//663 664//664 764//764 763//763
f 664//664 665//665 765//765 764//764
f 665//665 666//666 766//766 765//765
f 666//666 667//667 767//767 766//766
f 667//667 668//668 768//768 767//767
f 668//668 669//669 769//769 768//768
f 669//669 670//670 770//770 769//769
f 670//670 671//671 771//771 770//770
f 671//671 672//672 772//772 771//771
f 672//672 673//673 773//773 772//772
f 673//673 674//674 774//774 773//773
f 674//674 675//675 775//775 774//774
f 675//675 676//676 776//776 775//775
f 676//676 677//677 777//777 776//776
f 677//677 678//678 778//778 777//777
f 678//678 679//679 779//779 778//778
f 679//679 680//680 780//780 779//779
f 680//680 681//681 781//781 780//780
f 681//681 682//682 782//782 781//781
f 682//682 683//683 783//783 782//782
f 683//683 684//684 784//784 783//783
f 684//684 685//685 785//785 784//784
f 685//685 686//686 786//786 785//785
f 686//686 687//687 787//787 786//786
f 687//687 688//688 788//788 787//787
f 688//688 689//689 789//789 788//788
f 689//689 690//690 790//790 789//789
f 690//690 691//691 791//791 790//790
f 691//691 692//692 792//792 791//791
f 692//692 693//693 793//793 792//792
f 693//693 694//694 794//794 793//793
f 694//694 695//695 795//795 794//794
f 695//695 696//696 796//796 795//795
f 696//696 697//697 797//797 796//796
f 697//697 698//698 798//798 797//797
f 698//698 699//699 799//799 798//798
f 699//699 700//700 800//800 799//799
f 701//701 702//702 802//802 801//801
f 702//702 703//703 803//803 802//802
f 703//703 704//704 804//804 803//803
f 704//704 705//705 805//805 804//804
f 705//705 706//706 806//806 805//805
f 706//706 707//707 807//807 806//806
f 707//707 708//708 808//808 807//807
f 708//708 709//709 809//809 808//808
f 709//709 710//710 810//810 809//809
f 710//710 711//711 811//811 810//810
f 711//711 712//712 812//812 811//811
f 712//712 713//713 813//813 812//812
f 713//713 714//714 814//814 813//813
f 714//714 715//715 815//815 814//814
f 715//715 716//716 816//816 815//815
f 716//716 717//717 817//817 816//816
f 717//717 718//718 818//818 817//817
f 718//718 719//719 819//819 818//818
f 719//719 720//720 820//820 819//819
f 720//720 721//721 821//821 820//820
f 721//721 722//722 822//822 821//821
f 722//722 723//723 823//823 822//822
f 723//723 724//724 824//824 823//823
f 724//724 725//725 825//825 824//824
f 725//725 726//726 826//826 825//825
f 726//726 727//727 827//827 826//826
f 727//727 728//728 828//828 827//827
f 728//728 729//729 829//829 828//828
f 729//729 730//730 830//830 829//829
f 730//730 731//731 831//831 830//830
f 731//731 732//732 832//832 831//831
f 732//732 733//733 833//833 832//832
f 733//733 734//734 834//834 833//833
f 734//734 735//735 835//835 834//834
f 735//735 736//736 836//836 835//835
f 736//736 737//737 837//837 836//836
f 737//737 738//738 838//838 837//837
f 738//738 739//739 839//839 838//838
f 739//739 740//740 840//840 839//839
f 740//740 741//741 841//841 840//840
f 741//741 742//742 842//842 841//841
f 742//742 743//743 843//843 842//842
f 743//743 744//744 844//844 843//843
f 744//744 745//745 845//845 844//844
f 745//745 746//746 846//846 845//845
f 746//746 747//747 847//847 846//846
f 747//747 748//748 848//848 847//847
f 748//748 749//749 849//849 848//848
f 749//749 750//750 850//850 849//849
f 750//750 751//751 851//851 850//850
f 751//751 752//752 852//852 851//851
f 752//752 753//753 853//853 852//852
f 753//753 754//754 854//854 853//853
f 754//754 755//755 855//855 854//854
f 755//755 756//756 856//856 855//855
f 756//756 757//757 857//857 856//856
f 757//757 758//758 858//858 857//857
f 758//758 759//759 859//859 858//858
f 759//759 760//760 860//860 859//859
f 760//760 761//761 861//861 860//860
f 761//761 762//762 862//862 861//861
f 762//762 763//763 863//863 862//862
f 763//763 764//764 864//864 863//863
f 764//764 765//765 865//865 864//864
f 765//765 766//766 866//866 865//865
f 766//766 767//767 867//867 866//866
f 767//767 768//768 868//868 867//867
f 768//768 769//769 869//869 868//868
f 769//769 770//770 870//870 869//869
f 770//770 771//771 871//871 870//870
f 771//771 772//772 872//872 871//871
f 772//772 773//773 873//873 872//872
f 773//773 774//774 874//874 873//873
f 774//774 775//775 875//875 874//874
f 775//775 776//776 876//876 875//875
f 776//776 777//777 877//877 876//876
f 777//777 778//778 878//878 877//877
f 778//778 779//779 879//879 878//878
f 779//779 780//780 880//880 879//879
f 780//780 781//781 881//881 880//880
f 781//781 782//782 882//882 881//881
f 782//782 783//783 883//883 882//882
f 783//783 784//784 884//884 883//883
f 784//784 785//785 885//885 884//884
f 785//785 786//786 886//886 885//885
f 786//786 787//787 887//887 886//886
f 787//787 788//788 888//888 887//887
f 788//788 789//789 889//889 888//888
f 789//789 790//790 890//890 889//889
f 790//790 791//791 891//891 890//890
f 791//791 792//792 892//892 891//891
f 792//792 793//793 893//893 892//892
f 793//793 794//794 894//894 893//893
f 794//794 795//795 895//895 894//894
f 795//795 796//796 896//896 895//895
f 796//796 797//797 897//897 896//896
f 797//797 798//798 898//898 897//897
f 798//798 799//799 899//899 898//898
f 799//799 800//800 900//900 899//899
f 801//801 802//802 902//902 901//901
f 802//802 803//803 903//903 902//902
f 803//803 804//804 904//904 903//903
f 804//804 805//805 905//905 904//904
f 805//805 806//806 906//906 905//905
f 806//806 807//807 907//907 906//906
f 807//807 808//808 908//908 907//907
f 808//808 809//809 909//909 908//908
f 809//809 810//810 910//910 909//909
f 810//810 811//811 911//911 910//910
f 811//811 812//812 912//912 911//911
f 812//812 813//813 913//913 912//912
f 813//813 814//814 914//914 913//913
f 814//814 815//815 915//915 914//914
f 815//815 816//816 916//916 915//915
f 816//816 817//817 917//917 916//916
f 817//817 818//818 918//918 917//917
f 818//818 819//819 919//919 918//918
f 819//819 820//820 920//920 919//919
f 820//820 821//821 921//921 920//920
f 821//821 822//822 922//922 921//921
f 822//822 823//823 923//923 922//922
f 823//823 824//824 924//924 923//923
f 824//824 825//825 925//925 924//924
f 825//825 826//826 926//926 925//925
f 826//826 827//827 927//927 926//926
f 827//827 828//828 928//928 927//927
f 828//828 829//829 929//929 928//928
f 829//829 830//830 930//930 929//929
f 830//830 831//831 931//931 930//930
f 831//831 832//832 932//932 931//931
f 832//832 833//833 933//933 932//932
f 833//833 834//834 934//934 933//933
f 834//834 835//835 935//935 934//934
f 835//835 836//836 936//936 935//935
f 836//836 837//837 937//937 936//936
f 837//837 838//838 938//938 937//937
f 838//838 839//839 939//939 938//938
f 839//839 840//840 940//940 939//939
f 840//840 841//841 941//941 940//940
f 841//841 842//842 942//942 941//941
f 842//842 843//843 943//943 942//942
f 843//843 844//844 944//944 943//943
f 844//844 845//845 945//945 944//944
f 845//845 846//846 946//946 945//945
f 846//846 847//847 947//947 946//946
f 847//847 848//848 948//948 947//947
f 848//848 849//849 949//949 948//948
f 849//849 850//850 950//950 949//949
f 850//850 851//851 951//951 950//950
f 851//851 852//852 952//952 951//951
f 852//852 853//853 953//953 952//952
f 853//853 854//854 954//954 953//953
f 854//854 855//855 955//955 954//954
f 855//855 856//856 956//956 955//955
f 856//856 857//857 957//957 956//956
f 857//857 858//858 958//958 957//957
f 858//858 859//859 959//959 958//958
f 859//859 860//860 960//960 959//959
f 860//860 861//861 961//961 960//960
f 861//861 862//862 962//962 961//961
f 862//862 863//863 963//963 962//962
f 863//863 864//864 964//964 963//963
f 864//864 865//865 965//965 964//964
f 865//865 866//866 966//966 965//965
f 866//866 867//867 967//967 966//966
f 867//867 868//868 968//968 967//967
f 868//868 869//869 969//969 968//968
f 869//869 870//870 970//970 969//969
f 870//870 871//871 971//971 970//970
f 871//871 872//872 972//972 971//971
f 872//872 873//873 973//973 972//972
f 873//873 874//874 974//974 973//973
f 874//874 875//875 975//975 974//974
f 875//875 876//876 976//976 975//975
f 876//876 877//877 977//977 976//976
f 877//877 878//878 978//978 977//977
f 878//878 879//879 979//979 978//978
f 879//879 880//880 980//980 979//979
f 880//880 881//881 981//981 980//980
f 881//881 882//882 982//982 981//981
f 882//882 883//883 983//983 982//982
f 883//883 884//884 984//984 983//983
f 884//884 885//885 985//985 984//984
f 885//885 886//886 986//986 985//985
f 886//886 887//887 987//987 986//986
f 887//887 888//888 988//988 987//987
f 888//888 889//889 989//989 988//988
f 889//889 890//890 990//990 989//989
f 890//890 891//891 991//991 990//990
f 891//891 892//892 992//992 991//991
f 892//892 893//893 993//993 992//992
f 893//893 894//894 994//994 993//993
f 894//894 895//895 995//995 994//994
f 895//895 896//896 996//996 995//995
f 896//896 897//897 997//997 996//996
f 897//897 898//898 998//998 997//997
f 898//898 899//899 999//999 998//998
f 899//899 900//900 1000//1000 999//999
f 901//901 902//902 1002//1002 1001//1001
f 902//902 903//903 1003//1003 1002//1002
f 903//903 904//904 1004//1004 1003//1003
f 904//904 905//905 1005//1005 1004//1004
f 905//905 906//906 1006//1006 1005//1005
f 906//906 907//907 1007//1007 1006//1006
f 907//907 908//908 1008//1008 1007//1007
f 908//908 909//909 1009//1009 1008//1008
f 909//909 910//910 1010//1010 1009//1009
f 910//910 911//911 1011//1011 1010//1010
f 911//911 912//912 1012//1012 1011//1011
f 912//912 913//913 1013//1013 1012//1012
f 913//913 914//914 1014//1014 1013//1013
f 914//914 915//915 1015//1015 1014//1014
f 915//915 916//916 1016//1016 1015//1015
f 916//916 917//917 1017//1017 1016//1016
f 917//917 918//918 1018//1018 1017//1017
f 918//918 919//919 1019//1019 1018//1018
f 919//919 920//920 1020//1020 1019//1019
f 920//920 921//921 1021//1021 1020//1020
f 921//921 922//922 1022//1022 1021//1021
f 922//922 923//923 1023//1023 1022//1022
f 923//923 924//924 1024//1024 1023//1023
f 924//924 925//925 1025//1025 1024//1024
f 925//925 926//926 1026//1026 1025//1025
f 926//926 927//927 1027//1027 1026//1026
f 927//927 928//928 1028//1028 1027//1027
f 928//928 929//929 1029//1029 1028//1028
f 929//929 930//930 1030//1030 1029//1029
f 930//930 931//931 1031//1031 1030//1030
f 931//931 932//932 1032//1032 1031//1031
f 932//932 933//933 1033//1033 1032//1032
f 933//933 934//934 1034//1034 1033//1033
f 934//934 935//935 1035//1035 1034//1034
f 935//935 936//936 1036//1036 1035//1035
f 936//936 937//937 1037//1037 1036//1036
f 937//937 938//938 1038//1038 1037//1037
f 938//938 939//939 1039//1039 1038//1038
f 939//939 940//940 1040//1040 1039//1039
f 940//940 941//941 1041//1041 1040//1040
f 941//941 942//942 1042//1042 1041//1041
f 942//942 943//943 1043//1043 1042//1042
f 943//943 944//944 1044//1044 1043//1043
f 944//944 945//945 1045//1045 1044//1044
f 945//945 946//946 1046//1046 1045//1045
f 946//946 947//947 1047//1047 1046//1046
f 947//947 948//948 1048//1048 1047//1047
f 948//948 949//949 1049//1049 1048//1048
f 949//949 950//950 1050//1050 1049//1049
f 950//950 951//951 1051//1051 1050//1050
f 951//951 952//952 1052//1052 1051//1051
f 952//952 953//953 1053//1053 1052//1052
f 953//953 954//954 1054//1054 1053//1053
f 954//954 955//955 1055//1055 1054//1054
f 955//955 956//956 1056//1056 1055//1055
f 956//956 957//957 1057//1057 1056//1056
f 957//957 958//958 1058//1058 1057//1057
f 958//958 959//959 1059//1059 1058//1058
f 959//959 960//960 1060//1060 1059//1059
f 960//960 961//961 1061//1061 1060//1060
f 961//961 962//962 1062//1062 1061//1061
f 962//962 963//963 1063//1063 1062//1062
f 963//963 964//964 1064//1064 1063//1063
f 964//964 965//965 1065//1065 1064//1064
f 965//965 966//966 1066//1066 1065//1065
f 966//966 967//967 1067//1067 1066//1066
f 967//967 968//968 1068//1068 1067//1067
f 968//968 969//969 1069//1069 1068//1068
f 969//969 970//970 1070//1070 1069//1069
f 970//970 971//971 1071//1071 1070//1070
f 971//971 972//972 1072//1072 1071//1071
f 972//972 973//973 1073//1073 1072//1072
f 973//973 974//974 1074//1074 1073//1073
f 974//974 975//975 1075//1075 1074//1074
f 975//975 976//976 1076//1076 1075//1075
f 976//976 977//977 1077//1077 1076//1076
f 977//977 978//978 1078//1078 1077//1077
f 978//978 979//979 1079//1079 1078//1078
f 979//979 980//980 1080//1080 1079//1079
f 980//980 981//981 1081//1081 1080//1080
f 981//981 982//982 1082//1082 1081//1081
f 982//982 983//983 1083//1083 1082//1082
f 983//983 984//984 1084//1084 1083//1083
f 984//984 985//985 1085//1085 1084//1084
f 985//985 986//986 1086//1086 1085//1085
f 986//986 987//987 1087//1087 1086//1086
f 987//987 988//988 1088//1088 1087//1087
f 988//988 989//989 1089//1089 1088//1088
f 989//989 990//990 1090//1090 1089//1089
f 990//990 991//991 1091//1091 1090//1090
f 991//991 992//992 1092//1092 1091//1091
f 992//992 993//993 1093//1093 1092//1092
f 993//993 994//994 1094//1094 1093//1093
f 994//994 995//995 1095//1095 1094//1094
f 995//995 996//996 1096//1096 1095//1095
f 996//996 997//997 1097//1097 1096//1096
f 997//997 998//998 1098//1098 1097//1097
f 998//998 999//999 1099//1099 1098//1098
f 999//999 1000//1000 1100//1100 1099//1099
